<svg xmlns="http://www.w3.org/2000/svg" xmlns:xlink="http://www.w3.org/1999/xlink" width="1266" zoomAndPan="magnify" viewBox="0 0 949.5 1016.250013" height="1355" preserveAspectRatio="xMidYMid meet" version="1.0"><defs><clipPath id="adcd479180"><path d="M 0.101562 47.441406 L 948.898438 47.441406 L 948.898438 967.761719 L 0.101562 967.761719 Z M 0.101562 47.441406 " clip-rule="nonzero"/></clipPath><clipPath id="971998a2e0"><path d="M 197.941406 219.292969 L 751 219.292969 L 751 796 L 197.941406 796 Z M 197.941406 219.292969 " clip-rule="nonzero"/></clipPath></defs><g clip-path="url(#adcd479180)"><path fill="#ffffff" d="M 461.363281 223.359375 C 461.1875 215.457031 466.941406 209.394531 474.78125 209.21875 C 482.679688 209.039062 488.746094 214.792969 488.921875 222.632812 C 489.097656 230.53125 483.34375 236.597656 475.503906 236.773438 C 467.605469 236.953125 461.542969 231.195312 461.363281 223.359375 Z M 474.347656 307 C 483.644531 307.464844 491.789062 299.769531 491.886719 290.425781 C 491.984375 281.417969 484.539062 273.726562 475.519531 273.515625 C 466.523438 273.304688 458.730469 280.660156 458.398438 289.675781 C 458.066406 298.648438 465.339844 306.546875 474.347656 307 Z M 474.351562 166.570312 C 480.519531 167.261719 485.847656 162.316406 486.066406 156.113281 C 486.269531 150.238281 481.808594 145.269531 475.941406 144.839844 C 469.75 144.382812 464.230469 149.148438 464.277344 155.347656 C 464.332031 161.863281 467.828125 165.84375 474.351562 166.570312 Z M 440.785156 58.726562 C 444.316406 59.109375 446.777344 57.289062 447.089844 53.671875 C 447.394531 50.105469 445.429688 47.984375 441.429688 47.441406 C 438.335938 47.734375 436.015625 49.363281 435.90625 53.042969 C 435.808594 56.273438 437.652344 58.386719 440.785156 58.726562 Z M 509.4375 271.8125 C 517.65625 271.480469 524.082031 264.652344 523.957031 256.382812 C 523.835938 248.128906 517.210938 241.535156 508.953125 241.445312 C 500.335938 241.351562 493.464844 248.253906 493.59375 256.871094 C 493.722656 265.449219 500.835938 272.160156 509.4375 271.8125 Z M 508.453125 131.246094 C 513.886719 131.5 517.519531 128.285156 517.898438 122.832031 C 518.308594 116.949219 514.90625 113.648438 509.050781 112.804688 C 503.683594 113.167969 500.015625 115.890625 499.648438 121.363281 C 499.257812 127.230469 502.597656 130.972656 508.453125 131.246094 Z M 374.6875 128.867188 C 379.992188 128.6875 382.519531 125.351562 382.84375 120.121094 C 382.238281 115.023438 379.527344 111.90625 374.21875 111.949219 C 368.953125 111.988281 365.84375 114.972656 365.792969 120.238281 C 365.742188 125.933594 369.023438 129.058594 374.6875 128.867188 Z M 475.855469 96.132812 C 480.332031 95.761719 482.636719 92.644531 482.972656 88.296875 C 482.292969 83.703125 479.753906 80.761719 475.253906 80.769531 C 470.347656 80.773438 467.257812 83.871094 467.464844 88.765625 C 467.667969 93.628906 470.929688 96.539062 475.855469 96.132812 Z M 542.808594 306.648438 C 551.402344 306.398438 558.785156 298.839844 558.796875 290.28125 C 558.808594 281.390625 550.851562 273.613281 542.007812 273.871094 C 533.414062 274.125 526.035156 281.683594 526.019531 290.242188 C 526.007812 299.132812 533.964844 306.910156 542.808594 306.648438 Z M 509.242188 60.671875 C 512.6875 60.390625 514.5 58.054688 514.714844 54.699219 C 514.1875 51.113281 512.203125 48.886719 508.71875 48.996094 C 504.835938 49.117188 502.597656 51.613281 502.976562 55.496094 C 503.308594 58.949219 505.777344 60.957031 509.242188 60.671875 Z M 407.234375 234.796875 C 414.902344 235.148438 421.238281 229.203125 421.363281 221.542969 C 421.484375 214.1875 415.84375 208.164062 408.523438 207.828125 C 400.855469 207.480469 394.519531 213.421875 394.394531 221.085938 C 394.273438 228.441406 399.914062 234.464844 407.234375 234.796875 Z M 407.320312 304.96875 C 416.140625 305.332031 424.171875 297.628906 424.265625 288.71875 C 424.351562 280.179688 417.039062 272.546875 408.433594 272.191406 C 399.613281 271.828125 391.582031 279.53125 391.488281 288.441406 C 391.402344 296.976562 398.714844 304.613281 407.320312 304.96875 Z M 407.726562 164.503906 C 413.828125 164.582031 418.488281 160.085938 418.296875 153.992188 C 418.101562 147.722656 414.699219 144.121094 408.445312 143.632812 C 402.375 143.160156 397.609375 147.648438 397.425781 153.6875 C 397.238281 159.792969 401.648438 164.425781 407.726562 164.503906 Z M 374.433594 58.3125 C 377.125 57.980469 379.234375 56.578125 379.289062 53.195312 C 379.335938 50.292969 377.742188 48.433594 374.90625 48.140625 C 371.699219 47.808594 369.5 49.378906 369.222656 52.699219 C 368.953125 55.96875 370.734375 57.824219 374.433594 58.3125 Z M 407.375 93.921875 C 411.984375 94.160156 414.613281 91.734375 415.105469 87.027344 C 414.914062 82.488281 412.667969 79.683594 407.964844 79.644531 C 403.304688 79.605469 400.714844 82.246094 400.730469 86.902344 C 400.746094 91.136719 403.136719 93.707031 407.375 93.921875 Z M 441.007812 129.507812 C 446.960938 129.753906 450.613281 126.285156 450.609375 120.292969 C 450.601562 114.726562 447.125 111.738281 441.390625 111.167969 C 436.113281 111.691406 432.558594 114.53125 432.402344 120.121094 C 432.246094 125.671875 435.464844 129.277344 441.007812 129.507812 Z M 440.828125 199.859375 C 447.867188 200.203125 453.351562 195.300781 453.691406 188.363281 C 454.035156 181.324219 449.132812 175.839844 442.191406 175.5 C 435.15625 175.15625 429.667969 180.0625 429.332031 187 C 428.988281 194.039062 433.890625 199.523438 440.828125 199.859375 Z M 442.019531 270.105469 C 450.191406 269.847656 456.71875 263.054688 456.671875 254.859375 C 456.625 246.652344 450.035156 239.957031 441.839844 239.785156 C 433.308594 239.609375 426.300781 246.503906 426.351562 255.035156 C 426.398438 263.570312 433.476562 270.378906 442.019531 270.105469 Z M 509.300781 201.582031 C 516.230469 201.324219 521.15625 196.042969 520.996094 189.046875 C 520.835938 182.109375 515.636719 177.085938 508.667969 177.144531 C 501.714844 177.199219 496.609375 182.308594 496.554688 189.261719 C 496.5 196.542969 502 201.859375 509.300781 201.582031 Z M 643.015625 339.132812 C 651.65625 339.277344 658.503906 332.59375 658.546875 323.972656 C 658.585938 315.34375 651.808594 308.589844 643.175781 308.65625 C 634.5625 308.71875 627.898438 315.59375 628.066406 324.230469 C 628.230469 332.488281 634.753906 338.992188 643.015625 339.132812 Z M 609.238281 95.007812 C 613.527344 95.265625 615.753906 92.625 616.367188 88.566406 C 615.933594 84.695312 613.933594 82.117188 610.109375 81.921875 C 605.859375 81.707031 603.226562 84.199219 603.128906 88.441406 C 603.039062 92.292969 605.445312 94.78125 609.238281 95.007812 Z M 642.875 269.855469 C 649.582031 270.105469 655.863281 264.484375 656.488281 257.683594 C 657.125 250.714844 651.269531 243.945312 644.152344 243.425781 C 637.167969 242.914062 630.472656 248.890625 630.082031 255.988281 C 629.691406 262.996094 635.777344 269.589844 642.875 269.855469 Z M 542.0625 236.507812 C 549.488281 236.683594 555.523438 231.128906 555.914062 223.761719 C 556.320312 216.011719 550.472656 209.667969 542.753906 209.484375 C 535.332031 209.308594 529.292969 214.863281 528.90625 222.230469 C 528.496094 229.976562 534.34375 236.320312 542.0625 236.507812 Z M 642.835938 199.652344 C 649.007812 199.9375 652.992188 196.667969 653.546875 190.453125 C 654.132812 183.90625 650.839844 179.660156 644.1875 179.101562 C 637.570312 178.550781 633.890625 182.195312 632.859375 188.558594 C 633.089844 195.179688 636.125 199.347656 642.835938 199.652344 Z M 676.855469 441.351562 C 685.65625 441.40625 693.445312 433.699219 693.5 424.875 C 693.554688 416.074219 685.847656 408.285156 677.023438 408.230469 C 668.21875 408.175781 660.433594 415.882812 660.378906 424.707031 C 660.324219 433.511719 668.03125 441.296875 676.855469 441.351562 Z M 644.511719 374.199219 C 634.796875 373.621094 626.910156 380.460938 626.34375 389.957031 C 625.769531 399.667969 632.609375 407.554688 642.101562 408.121094 C 651.816406 408.699219 659.703125 401.855469 660.265625 392.363281 C 660.84375 382.648438 654.003906 374.761719 644.511719 374.199219 Z M 643.707031 129.59375 C 648.246094 129.359375 650.59375 126.429688 650.894531 121.910156 C 650.382812 117.371094 647.863281 114.558594 643.320312 114.609375 C 638.332031 114.664062 635.523438 117.78125 635.835938 122.703125 C 636.121094 127.230469 639.183594 129.824219 643.707031 129.59375 Z M 643.585938 59.03125 C 646.128906 58.839844 647.445312 57.113281 647.59375 54.648438 C 647.078125 52.050781 645.609375 50.433594 643.027344 50.632812 C 640.503906 50.832031 638.910156 52.527344 639.113281 55.109375 C 639.308594 57.636719 641.007812 59.222656 643.585938 59.03125 Z M 610.207031 340.402344 C 600.226562 340.148438 592.605469 347.492188 592.550781 357.410156 C 592.496094 367.039062 599.589844 374.410156 609.140625 374.652344 C 619.121094 374.902344 626.742188 367.5625 626.796875 357.640625 C 626.851562 348.011719 619.761719 340.644531 610.207031 340.402344 Z M 575.957031 340.777344 C 585.492188 340.820312 592.988281 333.308594 592.925781 323.769531 C 592.859375 314.242188 585.253906 306.839844 575.707031 307.011719 C 566.53125 307.175781 559.300781 314.417969 559.15625 323.597656 C 559.007812 333.144531 566.429688 340.734375 575.957031 340.777344 Z M 542.261719 95.742188 C 546.8125 95.496094 549.601562 93.183594 549.59375 88.472656 C 549.585938 83.78125 546.871094 81.214844 542.207031 81.277344 C 537.949219 81.332031 535.398438 83.789062 535.222656 88.042969 C 535.03125 92.691406 537.527344 95.28125 542.261719 95.742188 Z M 138.417969 433.933594 C 144.613281 434.402344 149.699219 429.3125 149.691406 422.695312 C 149.160156 416.621094 145.746094 412.765625 139.214844 412.285156 C 133.019531 411.824219 127.746094 416.914062 127.992188 423.121094 C 128.253906 429.644531 131.90625 433.441406 138.417969 433.933594 Z M 542.8125 166.144531 C 549.472656 165.929688 552.628906 161.8125 552.980469 155.285156 C 552.167969 148.832031 548.617188 145.0625 542.003906 145.316406 C 535.390625 145.574219 531.769531 149.570312 532 156.132812 C 532.234375 162.746094 536.246094 166.351562 542.8125 166.144531 Z M 575.765625 201.136719 C 582.453125 201.292969 588.011719 195.703125 587.816406 189.015625 C 587.628906 182.660156 582.261719 177.511719 575.902344 177.589844 C 569.542969 177.664062 564.304688 182.933594 564.265625 189.292969 C 564.230469 195.664062 569.398438 200.988281 575.765625 201.136719 Z M 609.289062 235.554688 C 616.097656 235.761719 621.777344 230.59375 622.207031 223.796875 C 622.65625 216.671875 617.1875 210.652344 610.058594 210.4375 C 603.25 210.230469 597.570312 215.398438 597.140625 222.191406 C 596.691406 229.320312 602.160156 235.339844 609.289062 235.554688 Z M 575.621094 60.0625 C 578.886719 60.0625 581.007812 58.621094 581.21875 55.242188 C 581.421875 51.972656 579.8125 49.875 576.453125 49.65625 C 573.1875 49.449219 571.085938 51.0625 570.867188 54.425781 C 570.648438 57.699219 572.304688 59.644531 575.621094 60.0625 Z M 609.386719 305.363281 C 617.574219 305.519531 624.507812 298.941406 624.777344 290.757812 C 625.046875 282.589844 618.542969 275.542969 610.382812 275.160156 C 601.878906 274.765625 594.617188 281.660156 594.570312 290.183594 C 594.527344 298.371094 601.199219 305.207031 609.386719 305.363281 Z M 576.054688 130.792969 C 581.289062 130.347656 584.488281 127.730469 584.601562 122.429688 C 584.722656 116.773438 581.652344 113.542969 575.960938 113.535156 C 570.703125 113.53125 567.636719 116.507812 567.480469 121.765625 C 567.3125 127.472656 570.539062 130.339844 576.054688 130.792969 Z M 340.527344 372.917969 C 350.199219 372.957031 357.550781 365.773438 357.6875 356.140625 C 357.824219 346.457031 350.714844 339.003906 341.117188 338.769531 C 331.074219 338.527344 323.480469 345.957031 323.539062 355.96875 C 323.597656 365.605469 330.882812 372.878906 340.527344 372.917969 Z M 206.296875 160.421875 C 210.183594 160.292969 212.179688 157.660156 212.609375 153.863281 C 211.894531 150.0625 209.785156 147.511719 205.867188 147.675781 C 202.011719 147.835938 199.5625 150.375 199.710938 154.261719 C 199.859375 158.117188 202.410156 160.554688 206.296875 160.421875 Z M 239.074219 404.269531 C 246.695312 404.660156 253.804688 398.3125 254.460938 390.535156 C 255.128906 382.632812 248.417969 375.097656 240.355469 374.683594 C 232.734375 374.296875 225.625 380.640625 224.96875 388.421875 C 224.300781 396.320312 231.011719 403.859375 239.074219 404.269531 Z M 239.792969 472.113281 C 248.535156 472.074219 255.121094 465.421875 255.082031 456.664062 C 255.046875 447.921875 248.394531 441.335938 239.636719 441.375 C 230.894531 441.410156 224.308594 448.0625 224.347656 456.820312 C 224.382812 465.566406 231.035156 472.148438 239.792969 472.113281 Z M 205.59375 230.007812 C 211.199219 230.226562 214.605469 227.292969 214.773438 221.59375 C 214.945312 215.921875 211.753906 212.972656 205.777344 212.464844 C 200.671875 213 197.277344 215.667969 197.367188 221.449219 C 197.449219 226.6875 200.351562 229.800781 205.59375 230.007812 Z M 239.648438 126.347656 C 243.128906 126.035156 245.386719 124.160156 245.5625 120.6875 C 245.738281 117.191406 243.617188 114.808594 240.191406 114.589844 C 236.324219 114.339844 233.859375 116.652344 233.878906 120.550781 C 233.894531 124.023438 236.171875 125.949219 239.648438 126.347656 Z M 273.296875 507.308594 C 282.863281 507.332031 290.257812 499.980469 290.28125 490.425781 C 290.304688 480.859375 282.953125 473.464844 273.398438 473.441406 C 263.832031 473.417969 256.4375 480.769531 256.414062 490.324219 C 256.386719 499.890625 263.738281 507.285156 273.296875 507.308594 Z M 239.308594 335.464844 C 246.382812 335.710938 252.847656 329.53125 252.96875 322.40625 C 253.089844 315.316406 246.808594 308.949219 239.703125 308.957031 C 232.933594 308.964844 226.816406 314.804688 226.460938 321.597656 C 226.089844 328.640625 232.183594 335.21875 239.308594 335.464844 Z M 239.125 196.398438 C 244.109375 196.246094 247.703125 194.105469 248.226562 188.773438 C 248.773438 183.207031 246.097656 179.585938 240.390625 179.132812 C 235.230469 178.722656 231.773438 181.320312 231.203125 186.59375 C 230.597656 192.199219 233.460938 195.449219 239.125 196.398438 Z M 239.085938 266.21875 C 245.007812 266.59375 250.609375 261.582031 250.988281 255.574219 C 251.363281 249.652344 246.355469 244.054688 240.34375 243.671875 C 234.421875 243.296875 228.820312 248.308594 228.441406 254.320312 C 228.066406 260.242188 233.074219 265.839844 239.085938 266.21875 Z M 205.457031 299.683594 C 211.472656 300.046875 217.183594 295.066406 217.117188 288.996094 C 217.042969 282.554688 213.554688 278.507812 207.109375 277.601562 C 201.109375 276.761719 195.511719 281.636719 195.019531 287.75 C 194.53125 293.753906 199.394531 299.3125 205.457031 299.683594 Z M 138.480469 296.921875 C 143.761719 297.164062 146.519531 294 147.402344 288.519531 C 146.777344 283.9375 144.484375 280.390625 139.152344 280.230469 C 133.925781 280.070312 130.691406 283.019531 130.480469 288.242188 C 130.269531 293.464844 133.257812 296.683594 138.480469 296.921875 Z M 139.03125 227.6875 C 142.917969 227.554688 144.917969 224.929688 145.34375 221.125 C 144.632812 217.324219 142.519531 214.777344 138.601562 214.941406 C 134.746094 215.101562 132.296875 217.644531 132.445312 221.527344 C 132.59375 225.378906 135.140625 227.820312 139.03125 227.6875 Z M 138.527344 365.730469 C 144.820312 365.957031 148.0625 362.007812 148.9375 355.921875 C 148.167969 349.832031 144.992188 345.902344 138.691406 345.941406 C 132.859375 345.980469 129.171875 349.566406 128.929688 355.347656 C 128.664062 361.578125 132.316406 365.511719 138.527344 365.730469 Z M 172.675781 401.371094 C 179.21875 401.257812 184.246094 396.214844 184.34375 389.667969 C 184.445312 382.796875 179.097656 377.464844 172.222656 377.582031 C 165.363281 377.703125 160.214844 383.234375 160.554688 390.121094 C 160.875 396.613281 166.125 401.484375 172.675781 401.371094 Z M 205.808594 436.796875 C 213.652344 436.933594 219.632812 431.183594 219.769531 423.382812 C 219.90625 415.539062 214.15625 409.558594 206.355469 409.421875 C 198.511719 409.285156 192.527344 415.035156 192.394531 422.835938 C 192.257812 430.679688 198.007812 436.664062 205.808594 436.796875 Z M 206.066406 368.597656 C 213.042969 368.605469 218.949219 362.617188 218.835938 355.652344 C 218.71875 348.671875 212.628906 342.855469 205.679688 343.09375 C 199.027344 343.320312 193.460938 348.964844 193.328125 355.617188 C 193.195312 362.582031 199.082031 368.585938 206.066406 368.597656 Z M 374.425781 199.382812 C 380.738281 199.28125 386.050781 193.800781 385.949219 187.5 C 385.84375 181.191406 380.363281 175.875 374.0625 175.976562 C 367.753906 176.082031 362.441406 181.5625 362.542969 187.863281 C 362.644531 194.171875 368.125 199.488281 374.425781 199.382812 Z M 172.851562 332.625 C 179.511719 332.414062 182.667969 328.296875 183.023438 321.769531 C 182.207031 315.316406 178.664062 311.542969 172.046875 311.800781 C 165.433594 312.054688 161.8125 316.046875 162.042969 322.613281 C 162.273438 329.226562 166.285156 332.832031 172.851562 332.625 Z M 172.359375 263.535156 C 178.117188 263.558594 180.855469 260.214844 181.164062 254.628906 C 180.585938 249.4375 177.855469 246.335938 172.539062 246.355469 C 166.828125 246.378906 163.734375 249.59375 163.867188 255.273438 C 163.996094 260.546875 167.085938 263.511719 172.359375 263.535156 Z M 172.769531 194.191406 C 176.554688 194.058594 178.960938 191.574219 178.964844 187.769531 C 178.972656 183.515625 176.261719 181.414062 172.179688 181.015625 C 168.425781 181.703125 165.902344 183.753906 165.933594 187.59375 C 165.964844 191.808594 168.558594 194.335938 172.769531 194.191406 Z M 340.226562 303.660156 C 348.679688 303.882812 355.835938 296.792969 355.695312 288.335938 C 355.558594 280.199219 348.710938 273.476562 340.578125 273.496094 C 332.441406 273.515625 325.628906 280.265625 325.53125 288.402344 C 325.429688 296.53125 332.09375 303.445312 340.226562 303.660156 Z M 340.902344 233.761719 C 348.066406 233.601562 353.4375 227.785156 353.054688 220.605469 C 352.691406 213.796875 347.179688 208.714844 340.320312 208.867188 C 333.46875 209.019531 328.234375 214.328125 328.167969 221.1875 C 328.097656 228.375 333.71875 233.917969 340.902344 233.761719 Z M 676.582031 372.664062 C 684.714844 372.851562 691.660156 366.410156 692.066406 358.300781 C 692.492188 349.839844 685.757812 342.585938 677.296875 342.390625 C 669.164062 342.203125 662.214844 348.644531 661.808594 356.75 C 661.386719 365.210938 668.117188 372.464844 676.582031 372.664062 Z M 306.980469 57.316406 C 309.511719 57.066406 311.089844 55.703125 311.085938 53.152344 C 311.082031 50.613281 309.527344 49.050781 306.980469 49.050781 C 304.4375 49.050781 302.882812 50.605469 302.878906 53.152344 C 302.875 55.707031 304.453125 57.0625 306.980469 57.316406 Z M 340.964844 163.785156 C 346.753906 163.21875 349.804688 159.625 350.480469 153.921875 C 349.605469 148.214844 346.488281 144.40625 340.671875 144.382812 C 334.875 144.359375 331.402344 148.023438 330.878906 153.785156 C 330.40625 159 335.765625 164.292969 340.964844 163.785156 Z M 373.578125 339.09375 C 383.125 339.433594 390.898438 332.164062 391.128906 322.671875 C 391.359375 313.121094 384.007812 305.457031 374.492188 305.328125 C 364.949219 305.203125 357.382812 312.644531 357.363281 322.171875 C 357.34375 331.378906 364.425781 338.769531 373.578125 339.09375 Z M 273.632812 439.703125 C 282.511719 439.527344 290.117188 431.660156 289.941406 422.824219 C 289.765625 413.941406 281.898438 406.339844 273.0625 406.515625 C 264.179688 406.691406 256.578125 414.5625 256.753906 423.394531 C 256.929688 432.277344 264.796875 439.878906 273.632812 439.703125 Z M 374.117188 269.507812 C 381.808594 269.585938 388.601562 263.007812 388.804688 255.28125 C 389.007812 247.601562 382.535156 240.722656 374.789062 240.386719 C 367.15625 240.058594 360.160156 246.460938 359.703125 254.195312 C 359.230469 262.152344 366.078125 269.425781 374.117188 269.507812 Z M 339.984375 93.285156 C 344.21875 93.683594 346.519531 91.082031 347.269531 87.082031 C 346.976562 83.203125 344.984375 80.601562 341.242188 80.28125 C 337.042969 79.921875 334.339844 82.375 334.097656 86.5625 C 333.875 90.40625 336.269531 92.9375 339.984375 93.285156 Z M 306.523438 127.839844 C 311.449219 128.054688 314.449219 125.21875 314.410156 120.253906 C 314.371094 115.714844 311.554688 113.277344 307.019531 112.894531 C 302.496094 113.234375 299.6875 115.621094 299.542969 120.167969 C 299.402344 124.695312 302 127.636719 306.523438 127.839844 Z M 272.949219 301.910156 C 280.078125 302.140625 286.441406 296.148438 286.675781 288.976562 C 286.910156 281.847656 280.914062 275.484375 273.746094 275.25 C 266.617188 275.015625 260.253906 281.011719 260.019531 288.179688 C 259.785156 295.308594 265.777344 301.675781 272.949219 301.910156 Z M 272.75 232.292969 C 278.765625 232.910156 284.15625 227.789062 284.382812 221.707031 C 284.613281 215.640625 279.625 210.386719 273.53125 210.277344 C 267.453125 210.167969 262.085938 215.257812 262.367188 221.332031 C 262.664062 227.789062 266.339844 231.632812 272.75 232.292969 Z M 272.609375 370.976562 C 281.074219 371.378906 288.308594 364.628906 288.484375 356.164062 C 288.652344 348.027344 282.195312 341.097656 274.085938 340.714844 C 265.621094 340.308594 258.386719 347.0625 258.210938 355.523438 C 258.042969 363.660156 264.5 370.589844 272.609375 370.976562 Z M 273.207031 162.273438 C 278.445312 162.398438 281.089844 159.042969 281.78125 153.992188 C 281.011719 148.941406 278.328125 145.671875 273.078125 145.8125 C 268.304688 145.9375 265.269531 148.941406 265.121094 153.699219 C 264.957031 158.890625 268.035156 162.148438 273.207031 162.273438 Z M 306.65625 268.101562 C 313.726562 268.304688 320.195312 261.945312 320.136719 254.851562 C 320.078125 248.082031 314.089844 241.984375 307.304688 241.789062 C 300.238281 241.589844 293.765625 247.949219 293.824219 255.039062 C 293.882812 261.8125 299.871094 267.910156 306.65625 268.101562 Z M 306.765625 337.421875 C 315.355469 337.53125 322.1875 330.796875 322.1875 322.214844 C 322.191406 313.636719 315.359375 306.898438 306.777344 307.003906 C 298.542969 307.105469 291.976562 313.574219 291.769531 321.789062 C 291.554688 330.371094 298.214844 337.3125 306.765625 337.421875 Z M 307.148438 197.964844 C 313.859375 197.894531 317.027344 193.808594 317.441406 187.242188 C 316.59375 180.792969 313.042969 177.070312 306.394531 177.394531 C 300.1875 177.695312 296.65625 181.425781 296.691406 187.644531 C 296.726562 194.285156 300.515625 198.035156 307.148438 197.964844 Z M 273.183594 91.820312 C 276.074219 91.953125 277.972656 90.40625 278.339844 87.5625 C 278.753906 84.347656 277.210938 82.113281 273.921875 81.769531 C 270.691406 81.433594 268.742188 83.140625 268.246094 86.410156 C 268.328125 89.65625 269.84375 91.667969 273.183594 91.820312 Z M 306.796875 406.464844 C 316.46875 406.554688 323.882812 399.292969 323.96875 389.660156 C 324.054688 379.992188 316.792969 372.574219 307.160156 372.488281 C 297.496094 372.402344 290.078125 379.664062 289.992188 389.296875 C 289.902344 398.964844 297.164062 406.378906 306.796875 406.464844 Z M 575.882812 271.1875 C 583.574219 271.285156 590.375 264.726562 590.601562 256.996094 C 590.824219 249.324219 584.359375 242.421875 576.617188 242.066406 C 568.660156 241.703125 561.449219 248.664062 561.480469 256.679688 C 561.511719 264.386719 568.164062 271.089844 575.882812 271.1875 Z M 491.890625 475.109375 C 491.890625 475.109375 491.894531 475.113281 491.898438 475.117188 C 491.894531 475.113281 491.894531 475.113281 491.890625 475.109375 Z M 710.621094 337.148438 C 717.734375 337.117188 723.980469 330.726562 723.824219 323.636719 C 723.667969 316.515625 717.167969 310.355469 710.105469 310.640625 C 703.308594 310.910156 697.414062 316.945312 697.316406 323.730469 C 697.214844 330.820312 703.519531 337.179688 710.621094 337.148438 Z M 710.175781 405.953125 C 717.816406 406.195312 724.84375 399.714844 725.34375 391.972656 C 725.859375 384.050781 719.011719 376.617188 710.964844 376.363281 C 703.328125 376.125 696.300781 382.601562 695.796875 390.34375 C 695.285156 398.265625 702.132812 405.699219 710.175781 405.953125 Z M 491.890625 475.109375 C 491.894531 475.109375 491.894531 475.109375 491.894531 475.109375 Z M 710.113281 127.925781 C 713.984375 128.164062 716.4375 125.839844 716.40625 121.945312 C 716.382812 118.472656 714.097656 116.554688 710.484375 116.152344 C 707.171875 116.527344 704.878906 118.351562 704.722656 121.84375 C 704.566406 125.34375 706.683594 127.714844 710.113281 127.925781 Z M 527.039062 471.675781 C 533.433594 462.898438 532.429688 450.179688 524.734375 442.476562 C 517.035156 434.773438 504.316406 433.761719 495.535156 440.152344 C 486.660156 446.613281 483.765625 458.539062 488.65625 468.628906 C 489.722656 470.835938 490.890625 472.996094 492.015625 475.175781 C 494.195312 476.300781 496.355469 477.46875 498.558594 478.539062 C 508.644531 483.433594 520.578125 480.542969 527.039062 471.675781 Z M 743.484375 438.433594 C 751.367188 438.792969 757.601562 433.097656 757.851562 425.300781 C 758.105469 417.410156 752.339844 411.296875 744.503906 411.144531 C 736.625 410.992188 730.601562 416.847656 730.558594 424.699219 C 730.515625 432.253906 736.011719 438.09375 743.484375 438.433594 Z M 710.421875 197.953125 C 716.128906 197.964844 719.257812 194.78125 719.152344 189.09375 C 719.054688 183.820312 715.996094 180.828125 710.71875 180.773438 C 704.96875 180.71875 702.195312 184.03125 701.855469 189.605469 C 702.398438 194.816406 705.109375 197.941406 710.421875 197.953125 Z M 710.351562 267.902344 C 716.339844 268.035156 721.714844 262.867188 721.847656 256.847656 C 721.980469 250.859375 716.808594 245.488281 710.792969 245.355469 C 704.804688 245.222656 699.429688 250.390625 699.296875 256.410156 C 699.164062 262.398438 704.332031 267.769531 710.351562 267.902344 Z M 491.898438 475.117188 C 491.921875 475.140625 491.9375 475.164062 491.960938 475.191406 C 492 475.226562 492.042969 475.261719 492.082031 475.300781 C 492.082031 475.300781 491.917969 475.136719 491.898438 475.117188 Z M 543.117188 404.023438 C 531.402344 403.660156 521.996094 412.445312 521.636719 424.082031 C 521.277344 435.796875 530.0625 445.203125 541.699219 445.5625 C 553.414062 445.921875 562.820312 437.136719 563.179688 425.5 C 563.539062 413.789062 554.753906 404.378906 543.117188 404.023438 Z M 492.015625 475.175781 C 491.976562 475.152344 491.933594 475.132812 491.894531 475.109375 L 492.082031 475.300781 C 492.0625 475.257812 492.039062 475.21875 492.015625 475.175781 Z M 509.882812 370.867188 C 498.144531 370.335938 488.6875 379.085938 488.464844 390.679688 C 488.246094 402.039062 496.851562 411.15625 508.085938 411.46875 C 519.460938 411.785156 528.667969 403.269531 529.078125 392.058594 C 529.492188 380.664062 521.078125 371.371094 509.882812 370.867188 Z M 458.140625 439.652344 C 458.121094 439.78125 458.113281 439.902344 458.109375 440.023438 C 458.226562 440.015625 458.34375 440 458.464844 439.980469 L 458.414062 439.929688 C 458.445312 439.960938 458.464844 439.980469 458.464844 439.980469 C 458.425781 439.914062 458.386719 439.847656 458.347656 439.78125 C 458.28125 439.742188 458.214844 439.699219 458.144531 439.65625 Z M 453.386719 437.539062 C 442.878906 431.617188 430.355469 433.988281 423.410156 443.261719 C 416.9375 451.90625 417.777344 464.664062 425.324219 472.445312 C 433.09375 480.453125 446.257812 481.472656 455.117188 474.753906 C 464.355469 467.746094 466.625 455.273438 460.625 444.734375 C 459.746094 443.191406 458.023438 442.042969 458.109375 440.023438 C 456.0625 440.183594 454.933594 438.410156 453.386719 437.539062 Z M 504.425781 548.546875 C 516.890625 550.300781 528.824219 540.652344 530.035156 527.601562 C 530.628906 521.199219 528.589844 515.429688 524.378906 510.578125 C 516.953125 502.023438 507.191406 501.757812 496.285156 504.128906 C 500.308594 492.910156 499.53125 483.425781 491.960938 475.191406 C 478.683594 462.53125 457.671875 468.285156 452.378906 485.449219 C 450.171875 492.609375 452.296875 499.144531 455.011719 505.632812 C 444.925781 499.761719 434.816406 499.84375 424.6875 505.527344 C 425.761719 503.582031 426.96875 501.703125 427.890625 499.6875 C 433.238281 487.96875 427.878906 474.644531 415.960938 469.878906 C 404.421875 465.261719 391.625 470.988281 387.210938 482.746094 C 382.847656 494.355469 388.878906 507.027344 400.695312 511.238281 C 408.175781 513.902344 414.949219 511.796875 421.574219 508.390625 C 420.71875 510.410156 419.871094 512.433594 419.003906 514.445312 C 415.078125 523.53125 416.304688 532.035156 422.824219 539.296875 C 429.351562 546.5625 437.769531 548.84375 447.128906 545.703125 C 456.5 542.558594 461.410156 535.539062 462.777344 525.914062 C 463.644531 519.8125 460.191406 514.695312 458.820312 509.105469 C 466.722656 516.8125 476.125 516.84375 486.144531 513.738281 C 481.949219 533.84375 488.683594 546.328125 504.425781 548.546875 Z M 744.398438 370.28125 C 751.378906 370.164062 757.195312 364.070312 756.957031 357.125 C 756.726562 350.46875 751.082031 344.90625 744.429688 344.773438 C 737.464844 344.636719 731.460938 350.527344 731.453125 357.507812 C 731.441406 364.484375 737.429688 370.394531 744.398438 370.28125 Z M 564.386719 492.164062 C 564.4375 480.007812 555.019531 470.308594 542.933594 470.078125 C 530.402344 469.835938 520.480469 479.480469 520.429688 491.949219 C 520.378906 504.109375 529.796875 513.804688 541.882812 514.035156 C 554.414062 514.277344 564.339844 504.636719 564.386719 492.164062 Z M 596.449219 458.113281 C 596.316406 446.746094 587.546875 438.0625 576.152344 438.015625 C 564.40625 437.964844 555.492188 446.964844 555.632812 458.734375 C 555.765625 470.101562 564.539062 478.785156 575.929688 478.835938 C 587.675781 478.886719 596.589844 469.882812 596.449219 458.113281 Z M 743.679688 301.300781 C 749.683594 301.898438 755.113281 296.664062 755.304688 290.582031 C 755.496094 284.53125 750.394531 279.226562 744.316406 279.160156 C 738.246094 279.09375 732.824219 284.296875 733.164062 290.355469 C 733.523438 296.816406 737.253906 300.664062 743.679688 301.300781 Z M 844.671875 331.625 C 849.492188 331.921875 852.226562 328.875 853 324.027344 C 852.492188 319.347656 849.964844 316.222656 845.121094 316.140625 C 840.6875 316.066406 837.699219 318.898438 837.371094 323.257812 C 837.003906 328.097656 839.910156 331.332031 844.671875 331.625 Z M 457.542969 411.910156 C 450.730469 421.40625 452.910156 430.660156 458.347656 439.78125 C 461.367188 441.585938 464.234375 443.746094 467.449219 445.054688 C 478.007812 449.351562 490.050781 444.40625 494.898438 434.085938 C 499.628906 424.023438 496.074219 412.074219 486.625 406.273438 C 476.808594 400.246094 464.179688 402.664062 457.542969 411.910156 Z M 878.5625 432.625 C 883.050781 432.238281 886.128906 429.839844 886.421875 425.390625 C 886.742188 420.5 883.820312 417.296875 878.917969 417.09375 C 874.410156 416.90625 871.355469 419.753906 871.050781 424.195312 C 870.714844 429.101562 873.699219 431.886719 878.5625 432.625 Z M 845.300781 399.882812 C 851.046875 399.789062 853.71875 396.324219 853.945312 390.753906 C 853.289062 385.113281 850.121094 382.125 844.488281 382.433594 C 839.234375 382.722656 836.328125 385.902344 836.371094 391.152344 C 836.417969 396.839844 839.636719 399.972656 845.300781 399.882812 Z M 878.632812 364.207031 C 882.980469 364.292969 885.140625 361.644531 885.550781 357.421875 C 885.007812 353.207031 882.769531 350.679688 878.421875 350.835938 C 874.53125 350.976562 872.171875 353.332031 872.050781 357.214844 C 871.914062 361.515625 874.324219 364.121094 878.632812 364.207031 Z M 912.703125 396.652344 C 915.390625 396.382812 917.570312 394.957031 917.761719 391.667969 C 917.972656 388.070312 916.160156 385.867188 912.464844 385.761719 C 909.242188 385.667969 907.199219 387.425781 906.980469 390.652344 C 906.734375 394.25 908.609375 396.304688 912.703125 396.652344 Z M 912.183594 328.179688 C 914.65625 328.035156 916.378906 326.710938 916.566406 324.171875 C 916.761719 321.59375 915.175781 319.894531 912.648438 319.699219 C 910.066406 319.5 908.371094 321.089844 908.171875 323.617188 C 907.96875 326.199219 909.589844 327.664062 912.183594 328.179688 Z M 878.867188 295.484375 C 882.253906 295.421875 883.882812 293.445312 884.027344 289.824219 C 883.6875 286.847656 881.996094 284.941406 878.605469 285.035156 C 875.230469 285.128906 873.445312 287.046875 873.515625 290.390625 C 873.585938 293.761719 875.519531 295.546875 878.867188 295.484375 Z M 811.683594 229.371094 C 815.570312 229.238281 817.570312 226.609375 818.042969 222.414062 C 817.140625 219.164062 815.238281 216.414062 811.257812 216.613281 C 807.398438 216.808594 804.949219 219.324219 805.097656 223.210938 C 805.246094 227.0625 807.796875 229.503906 811.683594 229.371094 Z M 845.445312 262.757812 C 849.074219 261.972656 851.5 259.84375 851.070312 255.957031 C 850.699219 252.585938 848.285156 250.375 844.835938 250.628906 C 841.050781 250.910156 838.734375 253.4375 839.136719 257.300781 C 839.488281 260.691406 841.925781 262.492188 845.445312 262.757812 Z M 777.789062 402.996094 C 784.332031 403.023438 789.539062 397.949219 789.671875 391.417969 C 789.808594 384.882812 784.804688 379.5625 778.304688 379.320312 C 771.765625 379.082031 766.347656 383.992188 766 390.480469 C 765.632812 397.34375 770.929688 402.96875 777.789062 402.996094 Z M 777.722656 334.308594 C 784.367188 334.402344 787.765625 330.503906 788.460938 323.570312 C 787.789062 317.621094 784.675781 313.480469 777.953125 313.46875 C 771.351562 313.457031 767.496094 317.171875 767.425781 323.777344 C 767.359375 330.375 771.113281 334.214844 777.722656 334.308594 Z M 744.363281 162.257812 C 748.175781 161.5625 750.726562 159.453125 750.578125 155.539062 C 750.433594 151.683594 747.898438 149.226562 744.011719 149.359375 C 740.160156 149.492188 737.710938 152.035156 737.828125 155.921875 C 737.945312 159.8125 740.566406 161.816406 744.363281 162.257812 Z M 744.148438 231.875 C 749.304688 231.503906 752.835938 228.960938 752.941406 223.171875 C 753.039062 217.941406 750.265625 214.65625 745.003906 214.289062 C 739.425781 213.898438 735.832031 216.683594 735.488281 222.40625 C 735.148438 228.035156 738.183594 231.191406 744.148438 231.875 Z M 811.476562 298.585938 C 816.734375 298.609375 819.355469 295.335938 819.976562 290.253906 C 819.351562 285.171875 816.722656 281.902344 811.464844 281.933594 C 806.261719 281.964844 803.148438 285.066406 803.152344 290.265625 C 803.152344 295.46875 806.273438 298.5625 811.476562 298.585938 Z M 778.210938 265.210938 C 783.53125 265.078125 786.140625 261.859375 786.546875 256.679688 C 786.1875 251.476562 783.605469 248.222656 778.292969 248.042969 C 772.632812 247.855469 769.28125 250.863281 769.261719 256.589844 C 769.238281 262.304688 772.542969 265.355469 778.210938 265.210938 Z M 811.15625 435.613281 C 817.347656 436.035156 822.402344 430.902344 822.347656 424.691406 C 822.292969 418.785156 817.6875 414.085938 811.785156 413.914062 C 805.578125 413.734375 800.351562 418.6875 800.644531 424.890625 C 800.953125 431.414062 804.644531 435.171875 811.15625 435.613281 Z M 811.492188 367.648438 C 817.582031 366.808594 821.484375 363.59375 821.371094 357.292969 C 821.265625 351.472656 817.65625 347.8125 811.859375 347.636719 C 805.628906 347.445312 801.730469 351.125 801.578125 357.34375 C 801.425781 363.636719 805.402344 366.839844 811.492188 367.648438 Z M 777.453125 195.875 C 781.707031 196.097656 783.90625 193.445312 784.566406 188.980469 C 783.878906 185.71875 782.078125 182.984375 778.222656 182.84375 C 774.003906 182.691406 771.390625 185.183594 771.324219 189.386719 C 771.265625 193.199219 773.679688 195.679688 777.453125 195.875 Z M 506.246094 678.726562 C 516.546875 679.175781 525.269531 671.125 525.609375 660.859375 C 525.945312 650.550781 517.804688 641.933594 507.523438 641.707031 C 497.546875 641.484375 489.140625 649.238281 488.597656 659.164062 C 488.035156 669.453125 495.996094 678.277344 506.246094 678.726562 Z M 406.027344 644.148438 C 416.679688 644.246094 425.230469 635.933594 425.441406 625.28125 C 425.648438 614.628906 417.425781 605.984375 406.78125 605.660156 C 396.140625 605.339844 387.398438 613.480469 386.960938 624.113281 C 386.511719 635.085938 395.042969 644.050781 406.027344 644.148438 Z M 338.503906 576.636719 C 349.363281 576.847656 357.820312 568.667969 357.929688 557.855469 C 358.035156 547.007812 349.773438 538.644531 338.9375 538.644531 C 328.101562 538.640625 319.832031 546.996094 319.933594 557.84375 C 320.03125 568.339844 328.035156 576.4375 338.503906 576.636719 Z M 372.414062 610.894531 C 383.082031 610.992188 392.226562 601.890625 392.183594 591.210938 C 392.144531 580.527344 382.941406 571.476562 372.292969 571.652344 C 361.914062 571.824219 353.171875 580.527344 352.941406 590.914062 C 352.707031 601.550781 361.714844 610.792969 372.414062 610.894531 Z M 439.785156 677.066406 C 450.144531 677.089844 458.445312 668.734375 458.359375 658.371094 C 458.277344 648.351562 450.296875 640.238281 440.292969 640.007812 C 429.917969 639.769531 421.429688 647.933594 421.300781 658.285156 C 421.167969 668.648438 429.429688 677.046875 439.785156 677.066406 Z M 342.253906 404.4375 C 331.289062 403.644531 322.375 411.378906 321.90625 422.097656 C 321.441406 432.71875 329.015625 441.253906 339.390625 441.804688 C 349.996094 442.367188 358.652344 434.859375 359.296875 424.542969 C 359.957031 413.917969 352.550781 405.183594 342.253906 404.4375 Z M 473.453125 646.605469 C 484.078125 646.609375 493.21875 637.667969 493.480469 627.015625 C 493.746094 616.097656 484.425781 606.574219 473.46875 606.570312 C 462.84375 606.5625 453.703125 615.503906 453.445312 626.160156 C 453.179688 637.078125 462.496094 646.597656 473.453125 646.605469 Z M 374.730469 370.5625 C 364.210938 370.339844 355.867188 378.007812 355.363281 388.363281 C 354.832031 399.246094 362.648438 407.953125 373.339844 408.375 C 384.199219 408.808594 392.835938 400.875 393.160156 390.171875 C 393.488281 379.324219 385.46875 370.789062 374.730469 370.5625 Z M 305.46875 542.335938 C 315.300781 542.234375 323.601562 533.875 323.628906 524.046875 C 323.652344 514.246094 315.375 505.832031 305.546875 505.679688 C 295.792969 505.527344 287.25 513.742188 286.96875 523.546875 C 286.679688 533.621094 295.367188 542.445312 305.46875 542.335938 Z M 307.269531 438.476562 C 297.511719 438.292969 288.894531 446.644531 288.710938 456.453125 C 288.53125 466.210938 296.878906 474.828125 306.691406 475.011719 C 316.449219 475.191406 325.066406 466.839844 325.246094 457.03125 C 325.429688 447.273438 317.078125 438.65625 307.269531 438.476562 Z M 541.019531 645.832031 C 551.675781 645.667969 560.019531 637.160156 559.96875 626.503906 C 559.921875 615.832031 551.523438 607.414062 540.851562 607.34375 C 529.882812 607.269531 521.199219 616.121094 521.484375 627.089844 C 521.757812 637.738281 530.363281 645.996094 541.019531 645.832031 Z M 676.65625 508.992188 C 686.234375 509.128906 693.738281 501.871094 693.875 492.335938 C 694.011719 482.761719 686.753906 475.257812 677.21875 475.121094 C 667.644531 474.984375 660.140625 482.242188 660.003906 491.777344 C 659.867188 501.351562 667.125 508.855469 676.65625 508.992188 Z M 676.65625 163.960938 C 681.84375 164.078125 685.085938 160.984375 685.164062 155.808594 C 685.246094 150.566406 681.871094 147.949219 676.316406 147.234375 C 671.953125 148.28125 668.460938 150.734375 668.695312 156.0625 C 668.902344 160.828125 671.886719 163.855469 676.65625 163.960938 Z M 676.582031 93.496094 C 679.859375 93.652344 681.863281 91.925781 681.964844 88.617188 C 682.066406 85.296875 680.136719 83.617188 676.894531 83.359375 C 673.621094 83.679688 671.789062 85.417969 671.90625 88.726562 C 672.007812 91.609375 673.695312 93.359375 676.582031 93.496094 Z M 676.640625 234.097656 C 682.695312 234.273438 687.988281 229.164062 688.039062 223.085938 C 688.09375 217.011719 682.875 211.601562 676.824219 211.953125 C 670.359375 212.332031 666.523438 216.070312 665.898438 222.492188 C 665.316406 228.5 670.558594 233.917969 676.640625 234.097656 Z M 407.726562 337.226562 C 397.285156 337.296875 389.1875 345.527344 389.257812 355.996094 C 389.332031 366.4375 397.558594 374.535156 408.027344 374.460938 C 418.46875 374.390625 426.566406 366.164062 426.496094 355.695312 C 426.425781 345.25 418.195312 337.15625 407.726562 337.226562 Z M 574.410156 612.621094 C 585.085938 612.585938 594.195312 603.332031 594.023438 592.695312 C 593.851562 581.996094 584.496094 572.976562 573.890625 573.289062 C 563.476562 573.59375 554.796875 582.414062 554.695312 592.796875 C 554.585938 603.464844 563.726562 612.652344 574.410156 612.621094 Z M 641.226562 544.074219 C 651.355469 544.308594 660.019531 535.820312 660.007812 525.667969 C 659.996094 515.851562 651.851562 507.539062 642.019531 507.304688 C 631.890625 507.066406 623.230469 515.558594 623.242188 525.710938 C 623.253906 535.527344 631.394531 543.839844 641.226562 544.074219 Z M 676.75 303.625 C 683.972656 303.734375 690.191406 297.6875 690.300781 290.449219 C 690.414062 283.226562 684.367188 277.007812 677.128906 276.898438 C 669.90625 276.785156 663.6875 282.832031 663.574219 290.070312 C 663.464844 297.292969 669.511719 303.515625 676.75 303.625 Z M 607.820312 578.390625 C 618.597656 578.480469 626.972656 570.25 627.0625 559.492188 C 627.152344 548.714844 618.921875 540.339844 608.164062 540.25 C 597.382812 540.164062 589.007812 548.390625 588.921875 559.152344 C 588.835938 569.929688 597.058594 578.304688 607.820312 578.390625 Z M 353.804688 456.429688 C 353.664062 468.226562 362.578125 477.234375 374.351562 477.183594 C 385.777344 477.132812 394.546875 468.453125 394.683594 457.054688 C 394.824219 445.257812 385.910156 436.253906 374.136719 436.304688 C 362.714844 436.351562 353.941406 445.03125 353.804688 456.429688 Z M 562.15625 559.117188 C 562.015625 547.578125 552 537.753906 540.519531 537.890625 C 528.980469 538.03125 519.15625 548.046875 519.296875 559.527344 C 519.4375 571.066406 529.453125 580.890625 540.933594 580.753906 C 552.472656 580.613281 562.296875 570.597656 562.15625 559.117188 Z M 405.902344 579.050781 C 417.359375 579.246094 427.40625 569.472656 427.605469 557.9375 C 427.804688 546.480469 418.03125 536.433594 406.492188 536.230469 C 395.035156 536.035156 384.988281 545.808594 384.789062 557.34375 C 384.589844 568.800781 394.363281 578.847656 405.902344 579.050781 Z M 495.683594 559.125 C 495.597656 546.5625 485.875 537.011719 473.265625 537.097656 C 460.707031 537.1875 451.148438 546.910156 451.238281 559.515625 C 451.324219 572.078125 461.050781 581.632812 473.65625 581.546875 C 486.21875 581.457031 495.773438 571.734375 495.683594 559.125 Z M 506.644531 613.824219 C 518.566406 614.070312 528.0625 604.691406 527.960938 592.773438 C 527.863281 581.175781 518.726562 572.101562 507.125 572.085938 C 495.511719 572.070312 486.355469 581.109375 486.226562 592.714844 C 486.097656 604.3125 495.066406 613.585938 506.644531 613.824219 Z M 440.144531 612.199219 C 451.714844 612.019531 460.816406 602.730469 460.753906 591.164062 C 460.691406 579.589844 451.507812 570.40625 439.929688 570.347656 C 428.363281 570.289062 419.078125 579.390625 418.902344 590.960938 C 418.722656 602.851562 428.257812 612.378906 440.144531 612.199219 Z M 441.871094 369.210938 C 430.601562 369.042969 421.507812 377.726562 421.242188 388.910156 C 420.96875 400.515625 430 409.773438 441.570312 409.742188 C 452.8125 409.714844 461.707031 400.859375 461.777344 389.628906 C 461.847656 378.367188 453.082031 369.378906 441.871094 369.210938 Z M 372.472656 544.605469 C 384.257812 544.652344 393.21875 535.675781 393.164062 523.886719 C 393.105469 512.113281 384.050781 503.253906 372.234375 503.410156 C 360.8125 503.558594 352.101562 512.28125 351.964844 523.707031 C 351.824219 535.523438 360.695312 544.5625 372.472656 544.605469 Z M 387.152344 422.964844 C 387.078125 434.691406 396.027344 443.761719 407.734375 443.835938 C 419.460938 443.90625 428.53125 434.964844 428.601562 423.253906 C 428.675781 411.527344 419.730469 402.457031 408.019531 402.386719 C 396.292969 402.3125 387.226562 411.253906 387.152344 422.964844 Z M 320.855469 490.734375 C 321.09375 501.132812 329.953125 509.957031 340.34375 510.132812 C 350.984375 510.3125 360.328125 501.125 360.367188 490.433594 C 360.410156 479.738281 351.148438 470.515625 340.460938 470.621094 C 329.785156 470.722656 320.617188 480.128906 320.855469 490.734375 Z M 575.480469 372.21875 C 565.058594 372.476562 557.132812 380.609375 557.101562 391.089844 C 557.066406 401.914062 565.351562 410.167969 576.183594 410.101562 C 586.984375 410.03125 595.148438 401.652344 594.980469 390.808594 C 594.816406 380.046875 586.320312 371.949219 575.480469 372.21875 Z M 543.199219 338.878906 C 532.386719 338.5 523.832031 346.632812 523.757812 357.363281 C 523.679688 367.792969 531.664062 376.011719 542.039062 376.179688 C 552.480469 376.347656 560.796875 368.445312 561.0625 358.105469 C 561.328125 347.648438 553.515625 339.238281 543.199219 338.878906 Z M 442.125 304.285156 C 432.402344 303.886719 423.710938 312.195312 423.582031 322.015625 C 423.460938 331.476562 431.363281 339.75 440.894531 340.140625 C 450.621094 340.539062 459.308594 332.226562 459.4375 322.410156 C 459.5625 312.949219 451.65625 304.675781 442.125 304.285156 Z M 509.527344 305.871094 C 499.910156 305.382812 491.101562 313.574219 490.742188 323.351562 C 490.382812 333 498.679688 341.707031 508.441406 341.929688 C 518.144531 342.148438 526.726562 333.78125 526.808594 324.019531 C 526.890625 314.625 519.015625 306.351562 509.527344 305.871094 Z M 475.425781 338.203125 C 464.808594 338.039062 456.101562 346.402344 455.816406 357.035156 C 455.527344 367.953125 464.347656 376.933594 475.28125 376.851562 C 485.890625 376.769531 494.425781 368.207031 494.46875 357.597656 C 494.511719 346.984375 486.046875 338.363281 475.425781 338.203125 Z M 595.039062 525.507812 C 594.949219 513.796875 585.910156 504.917969 574.175781 505.007812 C 562.472656 505.097656 553.589844 514.140625 553.679688 525.875 C 553.769531 537.582031 562.808594 546.460938 574.542969 546.371094 C 586.25 546.277344 595.128906 537.242188 595.039062 525.507812 Z M 610.011719 406.066406 C 599.445312 405.914062 591.195312 413.78125 590.949219 424.242188 C 590.695312 435.140625 598.90625 443.554688 609.757812 443.515625 C 620.257812 443.476562 628.339844 435.414062 628.398438 424.917969 C 628.457031 414.363281 620.511719 406.21875 610.011719 406.066406 Z M 609.515625 511.765625 C 620.191406 511.875 629.417969 502.699219 629.382812 492.007812 C 629.347656 481.324219 620.054688 472.175781 609.414062 472.347656 C 599.035156 472.515625 590.203125 481.296875 589.964844 491.6875 C 589.71875 502.300781 598.828125 511.660156 609.515625 511.765625 Z M 642.960938 476.691406 C 652.703125 476.910156 661.355469 468.574219 661.574219 458.769531 C 661.789062 449.027344 653.457031 440.375 643.652344 440.15625 C 633.910156 439.9375 625.257812 448.273438 625.039062 458.078125 C 624.820312 467.820312 633.15625 476.472656 642.960938 476.691406 Z M 608.9375 165.464844 C 615.171875 165.929688 618.539062 162.050781 619.636719 156.109375 C 619.109375 150.328125 616.144531 146.382812 610.410156 145.996094 C 604.222656 145.582031 600.234375 149.273438 599.925781 155.410156 C 599.636719 161.191406 603.246094 165.039062 608.9375 165.464844 Z M 641.746094 644.519531 C 633.054688 644.457031 626.296875 650.84375 625.929688 659.472656 C 625.542969 668.5 632.128906 675.644531 641.085938 675.917969 C 650.109375 676.195312 657.152344 669.53125 657.324219 660.550781 C 657.496094 651.527344 650.75 644.585938 641.746094 644.519531 Z M 642.25 783.476562 C 636.332031 783.101562 630.730469 788.113281 630.347656 794.125 C 629.972656 800.042969 634.984375 805.644531 640.996094 806.023438 C 646.917969 806.398438 652.519531 801.390625 652.898438 795.378906 C 653.273438 789.457031 648.261719 783.855469 642.25 783.476562 Z M 641.058594 924.292969 C 638.257812 924.558594 636.582031 926.367188 636.621094 929.234375 C 636.660156 932.496094 638.535156 934.367188 641.785156 934.273438 C 645.058594 934.179688 646.597656 932.125 646.703125 928.90625 C 646.164062 925.714844 644.273438 923.988281 641.058594 924.292969 Z M 642.164062 713.910156 C 634.386719 713.636719 628.21875 719.425781 628.050781 727.15625 C 627.878906 734.933594 633.746094 740.996094 641.503906 741.058594 C 649.289062 741.121094 655.242188 735.183594 655.199219 727.398438 C 655.15625 719.960938 649.5625 714.171875 642.164062 713.910156 Z M 642.3125 853.796875 C 637.125 853.386719 633.757812 856.40625 633.40625 861.535156 C 633.042969 866.773438 636.335938 869.527344 641.320312 870.445312 C 646.425781 869.902344 649.761719 867.324219 649.867188 862.085938 C 649.964844 857.273438 647.007812 854.167969 642.3125 853.796875 Z M 607.941406 817.945312 C 601.464844 818.609375 597.605469 821.964844 597.730469 828.632812 C 597.851562 834.832031 601.429688 838.480469 607.621094 838.632812 C 614.214844 838.796875 618.117188 835.175781 618.242188 828.546875 C 618.371094 821.871094 614.429688 818.558594 607.941406 817.945312 Z M 607.59375 747.808594 C 600.46875 748.042969 594.449219 754.433594 594.683594 761.515625 C 594.917969 768.640625 601.308594 774.660156 608.390625 774.425781 C 615.515625 774.191406 621.535156 767.804688 621.300781 760.722656 C 621.066406 753.59375 614.675781 747.574219 607.59375 747.808594 Z M 608.023438 888.457031 C 603.332031 888.492188 600.722656 891.164062 600.808594 895.828125 C 600.898438 900.554688 603.777344 902.765625 608.304688 902.921875 C 613.058594 902.371094 615.460938 899.664062 615.175781 895.054688 C 614.910156 890.808594 612.273438 888.425781 608.023438 888.457031 Z M 608.710938 678.359375 C 599.574219 678.003906 592.542969 684.6875 592.496094 693.761719 C 592.453125 702.535156 598.960938 709.207031 607.691406 709.347656 C 616.472656 709.488281 623.25 703.0625 623.488281 694.359375 C 623.726562 685.566406 617.382812 678.695312 608.710938 678.359375 Z M 709.546875 715.730469 C 703.191406 715.367188 697.496094 720.460938 697.132812 726.828125 C 696.773438 733.183594 701.863281 738.878906 708.234375 739.242188 C 714.589844 739.601562 720.285156 734.507812 720.644531 728.140625 C 721.007812 721.785156 715.914062 716.089844 709.546875 715.730469 Z M 641.128906 575.660156 C 631.601562 575.890625 624.394531 583.257812 624.328125 592.824219 C 624.261719 602.753906 631.777344 610.289062 641.703125 610.25 C 651.605469 610.210938 659.0625 602.597656 658.921875 592.667969 C 658.777344 582.804688 651.046875 575.417969 641.128906 575.660156 Z M 709.261719 855.332031 C 705.335938 855.582031 702.714844 857.546875 702.363281 861.332031 C 701.972656 865.558594 704.386719 868.289062 708.613281 868.5625 C 712.480469 868.8125 715.035156 866.453125 715.414062 862.703125 C 715.847656 858.429688 713.273438 856.105469 709.261719 855.332031 Z M 709.003906 785.382812 C 703.582031 785.261719 699.941406 788.648438 699.554688 794.023438 C 699.132812 799.867188 702.617188 803.742188 708.367188 804.097656 C 714.1875 804.457031 717.488281 800.804688 718.425781 794.960938 C 717.871094 789.304688 714.84375 785.515625 709.003906 785.382812 Z M 675.414062 611.179688 C 666.699219 611.105469 660.019531 617.558594 659.851562 626.222656 C 659.671875 635.269531 666.480469 642.121094 675.519531 641.992188 C 684.195312 641.871094 690.6875 635.242188 690.664062 626.535156 C 690.640625 617.824219 684.117188 611.253906 675.414062 611.179688 Z M 675.167969 542.578125 C 666.148438 542.628906 658.582031 550.179688 658.511719 559.199219 C 658.4375 568.539062 666.449219 576.367188 675.765625 576.066406 C 684.78125 575.777344 692.171875 568.019531 692.003906 559.023438 C 691.835938 550.007812 684.175781 542.523438 675.167969 542.578125 Z M 675.445312 819.578125 C 669.863281 819.492188 666.558594 822.574219 666.453125 828.191406 C 666.351562 833.773438 669.449219 837.070312 675.066406 837.1875 C 680.679688 837.304688 683.648438 834.121094 684.179688 828.558594 C 683.847656 823.050781 681.097656 819.667969 675.445312 819.578125 Z M 675.199219 889.8125 C 671.320312 889.929688 669.078125 892.429688 669.457031 896.3125 C 669.792969 899.765625 672.257812 901.773438 675.722656 901.488281 C 679.167969 901.207031 680.980469 898.871094 681.191406 895.558594 C 680.675781 891.921875 678.679688 889.707031 675.199219 889.8125 Z M 675.195312 749.4375 C 668.917969 749.476562 663.539062 754.914062 663.578125 761.179688 C 663.613281 767.457031 669.054688 772.835938 675.320312 772.800781 C 681.59375 772.761719 686.976562 767.320312 686.9375 761.054688 C 686.902344 754.78125 681.460938 749.398438 675.195312 749.4375 Z M 105.351562 261.0625 C 108.726562 260.558594 111.085938 258.644531 111.183594 255.21875 C 111.292969 251.378906 108.875 248.871094 105.050781 248.960938 C 101.230469 249.046875 98.894531 251.660156 99.191406 255.488281 C 99.457031 258.855469 101.855469 260.75 105.351562 261.0625 Z M 607.839844 608.777344 C 598.25 608.875 590.21875 616.949219 590.183594 626.53125 C 590.148438 636.433594 598.710938 644.757812 608.5625 644.398438 C 618.164062 644.046875 626.023438 635.761719 625.800781 626.226562 C 625.578125 616.628906 617.398438 608.683594 607.839844 608.777344 Z M 506.804688 852.058594 C 500.609375 852.242188 496.976562 856.09375 497.128906 862.304688 C 497.285156 868.5625 501.292969 871.625 507.421875 872.195312 C 513.417969 871.25 517.28125 868 517.058594 861.726562 C 516.839844 855.53125 513.011719 851.875 506.804688 852.058594 Z M 473.589844 676.648438 C 463.910156 676.585938 456.507812 683.699219 456.257812 693.304688 C 455.992188 703.324219 463.375 710.996094 473.332031 711.058594 C 483.011719 711.121094 490.417969 704.003906 490.667969 694.402344 C 490.929688 684.390625 483.539062 676.710938 473.589844 676.648438 Z M 507.230469 922.652344 C 503.386719 922.515625 500.894531 924.78125 500.5 928.53125 C 500.058594 932.742188 502.378906 935.511719 506.550781 935.890625 C 510.785156 936.269531 513.105469 933.722656 513.851562 929.664062 C 513.550781 925.464844 511.492188 922.800781 507.230469 922.652344 Z M 506.785156 781.59375 C 500.003906 781.777344 494.003906 787.867188 493.9375 794.640625 C 493.867188 801.730469 500.332031 808.097656 507.402344 807.90625 C 514.1875 807.722656 520.183594 801.632812 520.25 794.859375 C 520.320312 787.773438 513.859375 781.402344 506.785156 781.59375 Z M 473.765625 816.679688 C 467.472656 816.511719 461.929688 821.777344 461.757812 828.082031 C 461.589844 834.371094 466.855469 839.917969 473.160156 840.085938 C 479.449219 840.253906 484.996094 834.988281 485.164062 828.683594 C 485.332031 822.394531 480.070312 816.851562 473.765625 816.679688 Z M 473.304688 887.296875 C 468.070312 887.449219 465.023438 890.574219 465.125 895.804688 C 465.222656 901.035156 468.386719 904.0625 473.621094 903.992188 C 478.90625 903.921875 481.476562 900.613281 482.039062 894.875 C 481.121094 890.554688 478.640625 887.144531 473.304688 887.296875 Z M 473.265625 958.054688 C 470.398438 958.242188 468.5625 960.039062 468.628906 962.902344 C 468.703125 966.183594 470.820312 968.09375 474.066406 967.730469 C 476.835938 967.421875 478.347656 965.414062 478.398438 962.054688 C 477.601562 959.941406 476.265625 957.859375 473.265625 958.054688 Z M 473.429688 746.429688 C 465.800781 746.449219 459.007812 753.078125 458.769531 760.734375 C 458.527344 768.648438 465.539062 775.828125 473.496094 775.808594 C 481.125 775.789062 487.914062 769.160156 488.152344 761.503906 C 488.394531 753.585938 481.386719 746.40625 473.429688 746.429688 Z M 506.679688 711.726562 C 498.011719 711.9375 491.445312 718.589844 491.335938 727.273438 C 491.222656 736.296875 498.074219 743.242188 507.089844 743.242188 C 516.105469 743.246094 522.960938 736.300781 522.851562 727.277344 C 522.742188 718.277344 515.703125 711.507812 506.679688 711.726562 Z M 574.570312 852.5625 C 568.804688 852.441406 565.050781 856.066406 564.910156 861.804688 C 564.769531 867.570312 568.40625 871.316406 574.148438 871.46875 C 579.933594 871.617188 583.121094 867.90625 584 862.15625 C 583.375 856.523438 580.347656 852.6875 574.570312 852.5625 Z M 574 642.820312 C 564.457031 642.996094 557.09375 650.398438 556.957031 659.949219 C 556.816406 669.867188 564.398438 677.589844 574.300781 677.621094 C 584.203125 677.652344 591.839844 669.976562 591.761719 660.070312 C 591.683594 650.183594 583.910156 642.632812 574 642.820312 Z M 574.382812 923.125 C 570.9375 923.039062 568.570312 925.3125 568.230469 928.648438 C 567.839844 932.5 570.207031 935.105469 573.929688 935.414062 C 577.753906 935.734375 579.917969 933.234375 580.648438 929.433594 C 580.210938 925.738281 578.210938 923.21875 574.382812 923.125 Z M 575.050781 782.433594 C 568.070312 782.082031 562.523438 786.960938 562.070312 793.851562 C 561.585938 801.167969 566.820312 806.921875 574.089844 807.066406 C 581.066406 807.207031 586.433594 802.164062 586.675781 795.230469 C 586.921875 788.257812 581.945312 782.78125 575.050781 782.433594 Z M 540.804688 958.316406 C 538.273438 958.210938 536.566406 959.929688 536.183594 962.230469 C 535.703125 965.128906 537.550781 967.101562 540.25 967.46875 C 543.117188 967.863281 544.707031 965.882812 545.519531 962.824219 C 544.960938 960.53125 543.730469 958.4375 540.804688 958.316406 Z M 574.476562 712.382812 C 565.957031 712.316406 558.96875 719.484375 559.257812 728 C 559.535156 736.179688 566.476562 742.75 574.664062 742.585938 C 582.851562 742.421875 589.515625 735.582031 589.460938 727.390625 C 589.410156 719.195312 582.671875 712.449219 574.476562 712.382812 Z M 540.863281 816.882812 C 534.671875 816.796875 529.058594 822.484375 529.226562 828.664062 C 529.390625 834.566406 534.695312 839.800781 540.589844 839.882812 C 546.78125 839.964844 552.394531 834.28125 552.226562 828.101562 C 552.0625 822.203125 546.757812 816.964844 540.863281 816.882812 Z M 541.46875 677.015625 C 532.058594 676.621094 524.167969 683.941406 523.886719 693.320312 C 523.605469 702.746094 530.996094 710.519531 540.402344 710.691406 C 549.832031 710.863281 557.503906 703.386719 557.566406 693.96875 C 557.625 684.878906 550.519531 677.394531 541.46875 677.015625 Z M 540.921875 887.480469 C 535.648438 887.390625 533.003906 890.773438 532.355469 895.796875 C 533.148438 900.554688 535.691406 903.785156 540.53125 903.816406 C 545.75 903.851562 548.960938 900.644531 548.890625 895.429688 C 548.824219 890.640625 545.714844 887.558594 540.921875 887.480469 Z M 540.578125 746.980469 C 532.90625 747.058594 526.832031 752.992188 526.589844 760.640625 C 526.332031 768.640625 532.472656 775.109375 540.457031 775.257812 C 548.449219 775.402344 554.832031 769.167969 554.863281 761.179688 C 554.898438 753.191406 548.566406 746.898438 540.578125 746.980469 Z M 843.402344 583.722656 C 837.859375 584.246094 834.414062 587.207031 834.3125 592.777344 C 834.214844 598.332031 837.484375 601.882812 843.035156 602.046875 C 849 602.222656 852.59375 598.699219 852.515625 592.71875 C 852.445312 587.148438 848.917969 584.214844 843.402344 583.722656 Z M 440.070312 709.976562 C 431.070312 709.84375 424.015625 716.777344 424 725.773438 C 423.984375 734.441406 430.535156 741.289062 439.167969 741.632812 C 448.15625 741.988281 455.414062 735.21875 455.65625 726.253906 C 455.898438 717.257812 449.054688 710.105469 440.070312 709.976562 Z M 843.570312 515.929688 C 838.277344 515.527344 833.074219 520.90625 833.65625 526.15625 C 834.300781 531.949219 837.925781 534.984375 843.652344 535.585938 C 849.367188 534.636719 853.171875 531.484375 853.113281 525.636719 C 853.058594 519.832031 849.375 516.367188 843.570312 515.929688 Z M 844.96875 448.691406 C 839.210938 449.589844 835.429688 452.769531 835.570312 458.605469 C 835.707031 464.390625 839.472656 468.078125 845.285156 467.953125 C 851.070312 467.828125 854.742188 464.050781 854.636719 458.238281 C 854.53125 452.414062 850.65625 449.363281 844.96875 448.691406 Z M 843.417969 651.929688 C 838.671875 652.613281 835.441406 655.148438 835.3125 660.015625 C 835.1875 664.882812 838.234375 668.105469 843.007812 668.300781 C 848.25 668.519531 851.558594 665.257812 851.511719 660.007812 C 851.46875 655.15625 848.167969 652.609375 843.417969 651.929688 Z M 810 548.09375 C 804.023438 547.964844 798.691406 553.101562 798.5625 559.109375 C 798.433594 565.085938 803.566406 570.417969 809.574219 570.550781 C 815.550781 570.675781 820.886719 565.542969 821.015625 559.535156 C 821.144531 553.558594 816.007812 548.222656 810 548.09375 Z M 877.074219 687.964844 C 873.929688 688.226562 871.480469 689.875 871.28125 693.488281 C 871.085938 697.046875 873.128906 699.394531 876.691406 699.617188 C 880.246094 699.839844 882.59375 697.769531 882.816406 694.214844 C 883.039062 690.664062 880.960938 688.566406 877.074219 687.964844 Z M 811.371094 480.648438 C 805.402344 480.707031 800.125 485.976562 800.058594 491.945312 C 799.992188 497.890625 805.171875 503.273438 811.148438 503.46875 C 817.367188 503.667969 823.070312 497.972656 822.878906 491.75 C 822.695312 485.773438 817.324219 480.585938 811.371094 480.648438 Z M 843.421875 790.550781 C 840.867188 790.554688 839.222656 792.1875 839.222656 794.75 C 839.226562 797.308594 840.859375 798.941406 843.421875 798.949219 C 845.996094 798.953125 847.378906 797.285156 847.699219 794.753906 C 847.378906 792.210938 845.988281 790.542969 843.421875 790.550781 Z M 843.445312 720.9375 C 839.199219 721.015625 836.683594 723.625 836.878906 727.871094 C 837.054688 731.675781 839.550781 734.074219 843.394531 734.035156 C 847.679688 733.992188 849.777344 731.277344 850.113281 727.136719 C 849.394531 723.375 847.320312 720.863281 843.445312 720.9375 Z M 876.863281 551.375 C 872.078125 551.519531 868.976562 554.695312 869.109375 559.511719 C 869.238281 564.292969 872.425781 567.386719 877.242188 567.273438 C 882.0625 567.160156 884.59375 563.878906 885.191406 559.171875 C 884.34375 554.433594 881.714844 551.222656 876.863281 551.375 Z M 910.890625 519.308594 C 906.996094 519.21875 904.457031 521.628906 904.316406 525.488281 C 904.175781 529.375 906.632812 531.90625 910.484375 532.0625 C 914.398438 532.222656 916.507812 529.667969 917.28125 525.503906 C 916.613281 522.21875 914.851562 519.398438 910.890625 519.308594 Z M 944.320312 555.121094 C 941.761719 555.125 940.121094 556.757812 940.121094 559.320312 C 940.125 561.882812 941.757812 563.515625 944.320312 563.519531 C 946.890625 563.523438 948.277344 561.855469 948.597656 559.324219 C 948.277344 556.78125 946.886719 555.113281 944.320312 555.121094 Z M 912.664062 452.273438 C 908.835938 452.144531 906.304688 454.542969 906.226562 458.332031 C 906.152344 462.160156 908.722656 464.199219 912.4375 464.714844 C 916.21875 464.0625 918.671875 461.953125 918.519531 458.109375 C 918.382812 454.714844 916.0625 452.390625 912.664062 452.273438 Z M 946.445312 487.660156 C 943.597656 487.4375 941.730469 489.1875 941.597656 492.019531 C 941.484375 494.507812 943.199219 496.226562 945.5625 496.445312 C 948.425781 496.710938 949.996094 494.859375 950.558594 491.878906 C 950.113281 489.714844 948.863281 487.847656 946.445312 487.660156 Z M 877.0625 619.636719 C 872.378906 619.691406 869.929688 622.375 870.109375 626.992188 C 870.273438 631.230469 872.816406 633.566406 877.042969 633.539062 C 881.753906 633.507812 883.9375 630.753906 884.09375 626.195312 C 883.585938 622.007812 881.308594 619.585938 877.0625 619.636719 Z M 910.792969 587.117188 C 906.890625 587.117188 904.589844 589.597656 904.859375 593.457031 C 905.097656 596.882812 907.492188 598.996094 910.988281 598.800781 C 914.453125 598.609375 916.320312 596.339844 916.617188 592.859375 C 916.203125 589.382812 914.269531 587.117188 910.792969 587.117188 Z M 810.300781 616.488281 C 804.050781 616.207031 800.304688 619.632812 799.65625 625.867188 C 799.039062 631.835938 803.707031 636.839844 809.691406 636.734375 C 816.03125 636.625 819.246094 633 820.074219 626.984375 C 819.632812 620.738281 816.613281 616.773438 810.300781 616.488281 Z M 878.808594 483.972656 C 873.980469 483.964844 870.78125 486.996094 870.675781 491.777344 C 870.558594 497 873.855469 500.261719 879.078125 500.117188 C 883.882812 499.988281 886.414062 496.679688 887.039062 491.578125 C 886.109375 487.332031 883.703125 483.980469 878.808594 483.972656 Z M 911.175781 655.378906 C 908.273438 655.035156 906.253906 656.769531 905.886719 659.527344 C 905.453125 662.785156 907.34375 664.902344 910.609375 665.054688 C 913.5 665.191406 915.078125 663.289062 915.628906 660.519531 C 915.484375 657.621094 913.980469 655.710938 911.175781 655.378906 Z M 709.175781 577.929688 C 701.066406 577.761719 694.03125 584.535156 693.863281 592.667969 C 693.699219 600.78125 700.46875 607.8125 708.605469 607.980469 C 716.714844 608.148438 723.746094 601.378906 723.914062 593.242188 C 724.082031 585.128906 717.3125 578.097656 709.175781 577.929688 Z M 742.832031 682.226562 C 736.585938 682.046875 730.722656 687.492188 730.960938 693.75 C 731.214844 700.550781 735.125 704.597656 741.804688 705.402344 C 747.957031 706.148438 753.839844 700.632812 754.148438 694.371094 C 754.453125 688.148438 749.105469 682.410156 742.832031 682.226562 Z M 742.476562 613.378906 C 735.410156 613.410156 729.160156 619.804688 729.3125 626.84375 C 729.464844 633.582031 735.410156 639.578125 742.152344 639.796875 C 749.175781 640.019531 755.628906 633.820312 755.730469 626.75 C 755.832031 619.707031 749.527344 613.347656 742.476562 613.378906 Z M 742.953125 545.445312 C 735.082031 545.234375 728.953125 550.90625 728.644531 558.679688 C 728.324219 566.867188 734.363281 573.191406 742.507812 573.199219 C 750.351562 573.207031 756.289062 567.367188 756.398438 559.542969 C 756.507812 551.683594 750.757812 545.652344 742.953125 545.445312 Z M 744.082031 477.917969 C 736.417969 477.984375 730.324219 483.910156 730.066406 491.554688 C 729.796875 499.554688 735.921875 506.035156 743.910156 506.195312 C 751.902344 506.355469 758.292969 500.132812 758.34375 492.144531 C 758.390625 484.15625 752.070312 477.851562 744.082031 477.917969 Z M 742.730469 751.617188 C 736.9375 751.496094 733.164062 755.140625 733.027344 760.910156 C 732.886719 766.703125 736.546875 770.464844 742.316406 770.617188 C 748.136719 770.773438 751.316406 767.019531 752.222656 761.269531 C 751.574219 755.601562 748.539062 751.738281 742.730469 751.617188 Z M 742.832031 821.570312 C 738.183594 821.433594 735.585938 824.039062 735.707031 828.691406 C 735.8125 832.957031 738.453125 835.03125 743.273438 835.355469 C 746.589844 834.707031 749.378906 832.875 749.367188 828.488281 C 749.351562 824.25 747.0625 821.691406 742.832031 821.570312 Z M 709.972656 646.707031 C 702.171875 646.132812 695.691406 651.824219 695.347656 659.554688 C 695 667.359375 700.875 673.632812 708.644531 673.761719 C 716.125 673.886719 722.101562 668.300781 722.429688 660.882812 C 722.765625 653.414062 717.34375 647.25 709.972656 646.707031 Z M 809.660156 685.140625 C 804.417969 685.21875 801.304688 688.117188 801.09375 693.359375 C 800.871094 698.960938 803.800781 702.371094 809.503906 702.546875 C 815.175781 702.71875 818.125 699.53125 818.636719 693.546875 C 818.105469 688.453125 815.445312 685.050781 809.660156 685.140625 Z M 710.859375 443.089844 C 702.144531 442.953125 695.375 449.472656 695.238281 458.136719 C 695.101562 466.851562 701.621094 473.621094 710.285156 473.757812 C 719 473.894531 725.765625 467.375 725.90625 458.710938 C 726.042969 449.996094 719.523438 443.226562 710.859375 443.089844 Z M 709.28125 510.195312 C 700.167969 510.003906 693.277344 516.828125 693.394531 525.929688 C 693.507812 534.671875 700.148438 541.199219 708.917969 541.183594 C 717.683594 541.171875 724.296875 534.621094 724.386719 525.871094 C 724.472656 517.101562 717.996094 510.378906 709.28125 510.195312 Z M 809.882812 823.679688 C 807.125 824.105469 805.230469 825.59375 805.199219 828.464844 C 805.167969 830.964844 806.917969 832.675781 809.257812 832.953125 C 812.125 833.289062 814.09375 831.460938 814.347656 828.707031 C 814.613281 825.832031 812.648438 824.28125 809.882812 823.679688 Z M 778.238281 445.726562 C 771.261719 445.492188 765.253906 451.234375 765.140625 458.234375 C 765.027344 465.222656 770.859375 471.132812 777.855469 471.121094 C 784.855469 471.109375 790.671875 465.179688 790.535156 458.195312 C 790.40625 451.527344 784.90625 445.949219 778.238281 445.726562 Z M 776.367188 512.765625 C 769.53125 512.636719 763.363281 518.609375 763.230469 525.476562 C 763.101562 532.308594 769.074219 538.480469 775.941406 538.609375 C 782.777344 538.742188 788.945312 532.769531 789.078125 525.902344 C 789.207031 519.066406 783.234375 512.898438 776.367188 512.765625 Z M 809.625 754.289062 C 805.382812 754.398438 802.945312 756.84375 802.96875 761.078125 C 802.996094 765.769531 805.769531 768.203125 810.363281 767.925781 C 814.609375 767.667969 816.589844 764.917969 816.707031 760.648438 C 816.148438 756.589844 813.882812 754.175781 809.625 754.289062 Z M 775.890625 649.117188 C 769.808594 649.277344 764.550781 654.675781 765.113281 660.6875 C 765.71875 667.117188 769.546875 670.863281 776.003906 671.261719 C 782.054688 671.632812 787.289062 666.238281 787.257812 660.164062 C 787.222656 654.085938 781.949219 648.960938 775.890625 649.117188 Z M 776.914062 718.195312 C 771.078125 717.757812 767.222656 721.199219 766.851562 726.933594 C 766.472656 732.730469 770.074219 736.046875 775.929688 736.972656 C 781.558594 736.457031 785.332031 733.460938 785.480469 727.628906 C 785.617188 722.226562 782.28125 718.597656 776.914062 718.195312 Z M 776.164062 787.800781 C 771.9375 787.753906 769.398438 790.09375 769.207031 794.332031 C 769 798.984375 771.546875 801.417969 776.074219 801.796875 C 780.324219 801.515625 782.941406 799.429688 783.101562 795.167969 C 783.277344 790.554688 780.84375 787.855469 776.164062 787.800781 Z M 776.808594 857.53125 C 773.882812 857.132812 771.957031 858.945312 771.648438 861.777344 C 771.363281 864.355469 773.164062 866.132812 775.507812 866.492188 C 778.441406 866.945312 780.070312 865.011719 780.871094 861.917969 C 780.457031 859.828125 779.242188 857.859375 776.808594 857.53125 Z M 776.832031 580.855469 C 769.832031 580.515625 764.390625 585.378906 764.054688 592.277344 C 763.71875 599.277344 768.582031 604.71875 775.476562 605.054688 C 782.476562 605.394531 787.921875 600.527344 788.253906 593.632812 C 788.59375 586.628906 783.730469 581.191406 776.832031 580.855469 Z M 675.417969 680.164062 C 667.582031 680.085938 661.648438 685.878906 661.570312 693.691406 C 661.488281 701.53125 667.28125 707.460938 675.097656 707.539062 C 682.933594 707.621094 688.863281 701.828125 688.945312 694.011719 C 689.027344 686.175781 683.230469 680.246094 675.417969 680.164062 Z M 137.335938 683.582031 C 131.636719 683.535156 128.480469 686.691406 128.550781 692.382812 C 128.621094 697.660156 131.65625 700.675781 136.933594 700.757812 C 142.679688 700.847656 145.484375 697.558594 145.851562 691.996094 C 145.339844 686.765625 142.652344 683.625 137.335938 683.582031 Z M 136.785156 752.648438 C 132.46875 752.855469 130.152344 755.503906 130.34375 759.789062 C 130.539062 764.132812 133.25 766.160156 137.554688 766.332031 C 141.71875 765.742188 144.148438 763.402344 143.925781 759.085938 C 143.703125 754.769531 141.066406 752.445312 136.785156 752.648438 Z M 137.71875 614.789062 C 131.753906 614.246094 126.820312 618.964844 127.003906 624.945312 C 127.199219 631.269531 130.875 634.421875 135.917969 635.054688 C 142.613281 635.160156 147.257812 630.902344 147.257812 625.285156 C 147.257812 619.03125 143.9375 615.355469 137.71875 614.789062 Z M 137.53125 822.128906 C 134.664062 821.910156 132.734375 823.722656 132.570312 826.511719 C 132.402344 829.398438 134.398438 830.890625 137.527344 831.484375 C 139.683594 830.671875 141.882812 829.476562 141.734375 826.484375 C 141.609375 824.027344 139.921875 822.316406 137.53125 822.128906 Z M 103.933594 719.292969 C 99.71875 719.078125 97.089844 721.578125 96.988281 725.78125 C 96.898438 729.601562 99.3125 732.089844 103.070312 732.316406 C 107.328125 732.574219 109.539062 729.925781 110.167969 725.902344 C 109.722656 722.0625 107.726562 719.488281 103.933594 719.292969 Z M 105.324219 447.074219 C 99.523438 446.996094 96.03125 450.648438 95.453125 456.398438 C 94.925781 461.613281 100.222656 466.933594 105.457031 466.480469 C 111.257812 465.972656 114.320312 462.390625 115.050781 456.6875 C 114.230469 450.980469 111.132812 447.15625 105.324219 447.074219 Z M 103.328125 650.277344 C 98.617188 651.078125 95.421875 653.664062 95.425781 658.515625 C 95.425781 663.332031 98.484375 666.523438 103.269531 666.597656 C 108.492188 666.679688 111.742188 663.371094 111.5625 658.148438 C 111.398438 653.351562 108.085938 650.824219 103.328125 650.277344 Z M 103.109375 582.382812 C 97.46875 582.613281 94.398438 586.074219 94.617188 591.664062 C 94.835938 597.308594 98.304688 600.367188 103.894531 600.160156 C 109.566406 599.953125 112.261719 596.425781 112.511719 590.917969 C 111.839844 585.296875 108.71875 582.152344 103.109375 582.382812 Z M 103.667969 514.339844 C 97.867188 514.242188 94.371094 517.890625 93.769531 523.636719 C 93.226562 528.855469 98.503906 534.183594 103.746094 533.746094 C 109.554688 533.257812 112.621094 529.675781 113.371094 523.976562 C 112.570312 518.269531 109.476562 514.4375 103.667969 514.339844 Z M 137.152344 546.601562 C 130.679688 546.894531 126.804688 550.597656 126.097656 557.007812 C 125.433594 562.992188 130.628906 568.484375 136.703125 568.742188 C 142.75 568.996094 148.105469 563.945312 148.238281 557.863281 C 148.371094 551.800781 143.214844 546.324219 137.152344 546.601562 Z M 172.132812 443.992188 C 165.480469 444.171875 159.875 449.777344 159.699219 456.429688 C 159.511719 463.390625 165.363281 469.433594 172.347656 469.496094 C 179.324219 469.554688 185.265625 463.609375 185.203125 456.632812 C 185.136719 449.652344 179.089844 443.800781 172.132812 443.992188 Z M 170.492188 511.253906 C 163.839844 511.414062 158.214844 517.003906 158.015625 523.65625 C 157.804688 530.609375 163.640625 536.675781 170.625 536.757812 C 177.597656 536.84375 183.558594 530.917969 183.519531 523.941406 C 183.480469 516.957031 177.453125 511.089844 170.492188 511.253906 Z M 204.550781 819.871094 C 200.320312 819.800781 197.734375 822.113281 197.585938 826.34375 C 197.425781 830.988281 200.003906 833.609375 204.660156 833.519531 C 208.925781 833.4375 211.023438 830.816406 211.328125 826.640625 C 210.957031 822.476562 208.828125 819.941406 204.550781 819.871094 Z M 171.339844 579.269531 C 164.355469 578.976562 158.945312 583.984375 158.761719 590.910156 C 158.578125 597.898438 163.65625 603.199219 170.613281 603.277344 C 177.597656 603.359375 182.800781 598.199219 182.773438 591.21875 C 182.746094 584.574219 177.929688 579.542969 171.339844 579.269531 Z M 171.574219 647.527344 C 165.601562 646.789062 160.027344 651.863281 159.667969 657.929688 C 159.308594 663.953125 164.292969 669.402344 170.367188 669.640625 C 176.414062 669.875 181.988281 664.800781 181.808594 658.730469 C 181.613281 652.269531 178 648.324219 171.574219 647.527344 Z M 170.46875 855.9375 C 167.71875 856.277344 165.945312 858.15625 166.414062 861.03125 C 166.796875 863.371094 168.5625 864.734375 171.074219 864.835938 C 173.75 864.117188 175.609375 862.53125 175.121094 859.640625 C 174.730469 857.3125 172.96875 855.628906 170.46875 855.9375 Z M 170.773438 786.121094 C 166.550781 786.074219 164.011719 788.410156 163.820312 792.652344 C 163.613281 797.304688 166.15625 799.734375 170.6875 800.113281 C 174.9375 799.835938 177.550781 797.75 177.714844 793.488281 C 177.890625 788.871094 175.457031 786.171875 170.773438 786.121094 Z M 139.65625 478.992188 C 133.769531 478.496094 128.097656 483.304688 127.464844 489.328125 C 126.816406 495.511719 132.082031 501.515625 138.390625 501.785156 C 144.269531 502.035156 149.847656 496.957031 150.226562 491.007812 C 150.601562 485.140625 145.636719 479.496094 139.65625 478.992188 Z M 171.230469 716.550781 C 165.347656 716.328125 161.613281 719.863281 161.507812 725.757812 C 161.414062 731.238281 164.859375 734.835938 170.304688 735.058594 C 176.203125 735.296875 179.453125 731.691406 180.179688 725.902344 C 179.632812 720.386719 176.691406 716.757812 171.230469 716.550781 Z M 439.65625 779.8125 C 432.871094 779.917969 426.839844 785.816406 426.574219 792.613281 C 426.296875 799.679688 432.460938 806.171875 439.582031 806.324219 C 446.671875 806.472656 453.0625 800.21875 453.082031 793.105469 C 453.105469 786.003906 446.746094 779.707031 439.65625 779.8125 Z M 2.605469 553.445312 C 0.0429688 553.445312 -1.589844 555.078125 -1.59375 557.640625 C -1.597656 560.214844 0.0703125 561.597656 2.601562 561.921875 C 5.144531 561.601562 6.8125 560.210938 6.804688 557.640625 C 6.800781 555.085938 5.167969 553.441406 2.605469 553.445312 Z M 37.90625 395.015625 C 40.8125 394.90625 43.042969 393.449219 43.351562 390.1875 C 43.6875 386.625 41.957031 384.253906 38.21875 384.027344 C 34.984375 383.828125 32.8125 385.535156 32.492188 388.769531 C 32.136719 392.339844 33.910156 394.554688 37.90625 395.015625 Z M 4.542969 427.214844 C 7.070312 427.046875 8.550781 425.402344 8.386719 422.851562 C 8.222656 420.308594 6.5625 419.046875 4.121094 418.941406 C 1.511719 419.359375 0.015625 420.824219 0.183594 423.367188 C 0.351562 425.898438 2 427.382812 4.542969 427.214844 Z M 71.390625 430.847656 C 76.226562 430.964844 78.832031 427.828125 79.449219 423.085938 C 78.785156 418.304688 76.148438 415.257812 71.300781 415.359375 C 66.886719 415.449219 63.960938 418.351562 63.804688 422.742188 C 63.636719 427.5625 66.585938 430.734375 71.390625 430.847656 Z M 37.820312 326.726562 C 40.378906 326.894531 42.144531 325.105469 42.410156 322.722656 C 42.738281 319.796875 40.820312 318.179688 38.066406 317.59375 C 35.464844 317.839844 33.675781 319.3125 33.425781 321.703125 C 33.117188 324.605469 34.945312 326.539062 37.820312 326.726562 Z M 104.691406 398.195312 C 110.339844 398.480469 113.4375 395.394531 114.027344 389.765625 C 113.738281 384.175781 110.996094 380.820312 105.261719 380.742188 C 100.019531 380.671875 96.78125 383.523438 96.464844 388.773438 C 96.128906 394.359375 98.964844 397.910156 104.691406 398.195312 Z M 104.703125 329.953125 C 109.523438 330.207031 112.730469 327.28125 112.921875 322.488281 C 113.113281 317.65625 110.015625 314.996094 105.222656 314.316406 C 100.496094 314.914062 97.414062 317.496094 97.429688 322.34375 C 97.449219 326.78125 100.332031 329.722656 104.703125 329.953125 Z M 71.421875 293.800781 C 74.777344 293.875 76.566406 292.054688 76.828125 288.652344 C 76.691406 285.398438 75.074219 283.417969 71.679688 283.355469 C 68.335938 283.296875 66.398438 285.070312 66.332031 288.449219 C 66.261719 291.796875 68.050781 293.722656 71.421875 293.800781 Z M 70.746094 362.5 C 75.015625 362.957031 77.828125 360.710938 78.222656 356.441406 C 78.621094 352.148438 76.140625 349.75 71.992188 349.035156 C 67.710938 349.265625 65.027344 351.316406 64.859375 355.660156 C 64.707031 359.566406 66.902344 362.089844 70.746094 362.5 Z M 35.621094 653.652344 C 33.5 654.492188 31.292969 655.746094 31.511719 658.738281 C 31.71875 661.5625 33.558594 663.40625 36.4375 663.253906 C 39.25 663.101562 41.089844 661.222656 40.949219 658.339844 C 40.8125 655.488281 38.867188 654.007812 35.621094 653.652344 Z M 69.390625 549.894531 C 65.015625 550.140625 62.125 553.070312 62.121094 557.503906 C 62.113281 562.328125 65.128906 565.410156 69.941406 565.378906 C 74.773438 565.347656 77.289062 562.136719 77.777344 557.359375 C 76.917969 552.664062 74.246094 549.621094 69.390625 549.894531 Z M 69.894531 618.085938 C 65.199219 618.121094 62.773438 620.90625 63.0625 625.496094 C 63.328125 629.742188 66.078125 631.71875 71.027344 631.839844 C 74.183594 631.050781 76.890625 629.089844 76.710938 624.726562 C 76.535156 620.488281 74.128906 618.054688 69.894531 618.085938 Z M 70.167969 686.71875 C 66.933594 686.523438 64.765625 688.226562 64.445312 691.460938 C 64.089844 695.035156 65.863281 697.25 69.855469 697.707031 C 72.761719 697.601562 74.996094 696.140625 75.304688 692.882812 C 75.640625 689.320312 73.910156 686.945312 70.167969 686.71875 Z M 71.417969 482.085938 C 66.6875 482.859375 63.476562 485.429688 63.445312 490.304688 C 63.414062 495.152344 66.46875 498.355469 71.269531 498.460938 C 76.519531 498.578125 79.78125 495.277344 79.640625 490.03125 C 79.507812 485.199219 76.191406 482.667969 71.417969 482.085938 Z M 35.59375 585.695312 C 32.4375 585.984375 30.570312 588.089844 30.640625 591.300781 C 30.714844 594.9375 32.894531 596.742188 36.628906 596.960938 C 40.003906 596.425781 42.097656 594.449219 41.824219 590.835938 C 41.546875 587.203125 39.128906 585.367188 35.59375 585.695312 Z M 37.710938 450.472656 C 33.945312 450.628906 31.507812 453.144531 31.652344 456.949219 C 31.800781 460.714844 34.320312 463.144531 38.128906 463.011719 C 41.925781 462.878906 43.910156 460.289062 44.335938 456.578125 C 43.636719 452.828125 41.539062 450.316406 37.710938 450.472656 Z M 4.433594 485.785156 C 1.90625 485.597656 0.191406 487.324219 -0.238281 489.628906 C -0.785156 492.542969 1.074219 494.507812 3.738281 494.925781 C 6.605469 495.375 8.214844 493.390625 8.984375 490.691406 C 8.734375 487.894531 7.265625 485.996094 4.433594 485.785156 Z M 204.609375 749.929688 C 198.816406 749.828125 195.042969 753.457031 194.902344 759.226562 C 194.765625 765.019531 198.421875 768.78125 204.191406 768.9375 C 210.011719 769.089844 213.195312 765.339844 214.132812 759.351562 C 213.371094 753.996094 210.449219 750.035156 204.609375 749.929688 Z M 36.441406 517.742188 C 32.636719 517.597656 30.121094 520.035156 29.96875 523.804688 C 29.8125 527.632812 32.328125 529.726562 36.40625 530.484375 C 39.652344 529.851562 42.414062 528.082031 42.515625 524.214844 C 42.609375 520.398438 40.207031 517.886719 36.441406 517.742188 Z M 103.78125 788.859375 C 101.199219 788.695312 99.5 790.265625 99.304688 792.789062 C 99.105469 795.371094 100.699219 797.066406 103.226562 797.265625 C 105.808594 797.464844 107.273438 795.847656 107.855469 792.894531 C 107.484375 790.917969 106.378906 789.023438 103.78125 788.859375 Z M 339.121094 676.675781 C 330.347656 676.585938 323.621094 683.058594 323.4375 691.773438 C 323.246094 700.554688 329.640625 707.382812 338.324219 707.667969 C 347.453125 707.964844 354.4375 701.238281 354.425781 692.148438 C 354.414062 683.382812 347.871094 676.765625 339.121094 676.675781 Z M 372.171875 675.941406 C 382.078125 676.140625 389.871094 668.605469 389.964844 658.722656 C 390.0625 648.808594 382.441406 641.121094 372.539062 641.136719 C 362.964844 641.152344 355.460938 648.40625 355.164062 657.933594 C 354.851562 667.84375 362.3125 675.738281 372.171875 675.941406 Z M 205.007812 680.546875 C 198.804688 680.191406 193.007812 685.507812 192.773438 691.773438 C 192.542969 698.007812 197.949219 703.921875 204.210938 703.734375 C 211.011719 703.53125 215.085938 699.652344 215.941406 692.976562 C 216.734375 686.828125 211.273438 680.90625 205.007812 680.546875 Z M 339.023438 746.105469 C 331.867188 746.050781 325.660156 752.175781 325.601562 759.34375 C 325.542969 766.5 331.667969 772.707031 338.839844 772.765625 C 345.992188 772.824219 352.203125 766.699219 352.261719 759.527344 C 352.316406 752.375 346.191406 746.164062 339.023438 746.105469 Z M 339.136719 642.582031 C 348.765625 642.460938 356.605469 634.527344 356.605469 624.90625 C 356.609375 615.285156 348.769531 607.351562 339.140625 607.230469 C 329.523438 607.109375 321.496094 614.851562 321.253906 624.488281 C 321.003906 634.421875 329.195312 642.707031 339.136719 642.582031 Z M 305.359375 642.890625 C 296.609375 642.859375 289.882812 649.351562 289.652344 658.058594 C 289.40625 667.160156 296.164062 674.152344 305.238281 674.183594 C 313.988281 674.214844 320.710938 667.722656 320.945312 659.019531 C 321.1875 649.917969 314.429688 642.921875 305.359375 642.890625 Z M 372.359375 850.832031 C 366.585938 850.988281 362.925781 854.75 363.066406 860.539062 C 363.203125 866.308594 366.972656 869.957031 372.769531 869.835938 C 378.574219 869.714844 381.613281 865.855469 382.277344 860.039062 C 381.316406 854.480469 378.1875 850.675781 372.359375 850.832031 Z M 339.054688 816.414062 C 332.417969 816.398438 328.628906 820.144531 328.644531 826.785156 C 328.664062 833.492188 332.714844 836.703125 339.730469 837.199219 C 345.546875 836.195312 349.546875 832.941406 349.230469 826.203125 C 348.9375 819.996094 345.273438 816.429688 339.054688 816.414062 Z M 338.769531 886.773438 C 334.511719 886.820312 331.933594 889.253906 331.746094 893.503906 C 331.539062 898.121094 333.960938 901.003906 338.675781 901.148438 C 343.347656 901.292969 345.832031 898.664062 346.207031 893.988281 C 345.878906 889.375 343.460938 886.726562 338.769531 886.773438 Z M 406.027344 885.5625 C 401.242188 886.34375 398.015625 888.894531 397.988281 893.777344 C 397.960938 899.039062 401.164062 902.242188 406.421875 902.164062 C 411.257812 902.09375 414.324219 898.996094 414.402344 894.15625 C 414.488281 888.832031 411.105469 886.1875 406.027344 885.5625 Z M 440.085938 920.78125 C 435.839844 921.117188 433.207031 923.214844 433.132812 927.570312 C 433.066406 931.488281 435.339844 933.953125 439.175781 934.273438 C 443.4375 934.628906 446.210938 932.34375 446.507812 928.042969 C 446.804688 923.71875 444.269531 921.414062 440.085938 920.78125 Z M 372.179688 780.707031 C 365.320312 780.898438 360.21875 786.152344 360.199219 793.035156 C 360.179688 800.238281 365.730469 805.636719 372.945312 805.433594 C 380.117188 805.230469 385.335938 799.488281 384.910156 792.273438 C 384.511719 785.453125 379.070312 780.511719 372.179688 780.707031 Z M 405.648438 745.195312 C 398.019531 745.484375 391.996094 751.710938 391.953125 759.355469 C 391.910156 767.332031 398.347656 773.75 406.324219 773.679688 C 414.292969 773.605469 420.628906 767.058594 420.4375 759.097656 C 420.25 751.148438 413.589844 744.890625 405.648438 745.195312 Z M 439.730469 850.34375 C 433.488281 850.4375 429.78125 854.1875 429.84375 860.433594 C 429.910156 866.671875 433.683594 870.355469 439.929688 870.324219 C 446.238281 870.296875 449.351562 866.339844 450.035156 860.226562 C 449.226562 854.144531 446.042969 850.242188 439.730469 850.34375 Z M 405.652344 675.289062 C 396.488281 675.550781 389.355469 682.886719 389.3125 692.085938 C 389.269531 701.625 396.78125 709.117188 406.320312 709.054688 C 415.847656 708.992188 423.25 701.382812 423.078125 691.835938 C 422.910156 682.335938 415.199219 675.011719 405.652344 675.289062 Z M 406.058594 815.167969 C 400.144531 815.25 394.824219 820.503906 394.664062 826.421875 C 394.492188 832.628906 400.113281 838.320312 406.332031 838.234375 C 412.246094 838.15625 417.566406 832.898438 417.730469 826.984375 C 417.902344 820.769531 412.28125 815.082031 406.058594 815.167969 Z M 406.402344 956.519531 C 403.523438 956.375 401.644531 958.207031 401.488281 961.027344 C 401.328125 963.90625 403.175781 965.777344 405.992188 965.945312 C 408.898438 966.121094 410.429688 964.179688 411.042969 961.417969 C 410.730469 958.609375 409.253906 956.660156 406.402344 956.519531 Z M 373.015625 710.667969 C 364.542969 710.417969 357.445312 717.296875 357.425781 725.769531 C 357.410156 733.914062 363.980469 740.703125 372.109375 740.941406 C 380.582031 741.1875 387.679688 734.308594 387.699219 725.839844 C 387.71875 717.695312 381.144531 710.90625 373.015625 710.667969 Z M 304.894531 712.230469 C 297.171875 712.433594 291.410156 718.640625 291.722656 726.417969 C 292.019531 733.804688 297.84375 739.371094 305.285156 739.378906 C 313.0625 739.386719 318.976562 733.390625 318.875 725.605469 C 318.773438 717.859375 312.671875 712.023438 304.894531 712.230469 Z M 372.957031 921.453125 C 369.132812 921.25 366.5625 923.628906 366.421875 927.414062 C 366.28125 931.246094 368.835938 933.3125 372.578125 933.886719 C 376.316406 933.289062 378.800781 931.230469 378.71875 927.378906 C 378.644531 923.957031 376.328125 921.628906 372.957031 921.453125 Z M 238.214844 714.046875 C 231.824219 713.945312 226.378906 719.222656 226.277344 725.621094 C 226.175781 732.015625 231.453125 737.457031 237.851562 737.558594 C 244.242188 737.660156 249.6875 732.382812 249.789062 725.988281 C 249.890625 719.59375 244.613281 714.148438 238.214844 714.046875 Z M 238.414062 645.027344 C 230.65625 644.824219 224.503906 650.824219 224.523438 658.574219 C 224.539062 665.996094 230.246094 671.855469 237.652344 672.050781 C 245.410156 672.253906 251.5625 666.253906 251.542969 658.503906 C 251.523438 651.078125 245.820312 645.222656 238.414062 645.027344 Z M 238.683594 576.28125 C 230.671875 575.894531 223.429688 582.539062 223.039062 590.625 C 222.65625 598.632812 229.296875 605.878906 237.382812 606.265625 C 245.394531 606.652344 252.636719 600.007812 253.027344 591.921875 C 253.410156 583.914062 246.769531 576.667969 238.683594 576.28125 Z M 237.792969 783.699219 C 232.382812 783.804688 228.839844 787.304688 228.671875 792.691406 C 228.496094 798.507812 232.058594 802.296875 237.863281 802.421875 C 243.699219 802.546875 246.839844 798.785156 247.59375 792.875 C 246.738281 787.351562 243.671875 783.585938 237.792969 783.699219 Z M 238.277344 853.570312 C 234.121094 853.953125 231.480469 856.039062 231.402344 860.308594 C 231.332031 864.15625 233.644531 866.617188 237.390625 866.945312 C 241.589844 867.308594 244.339844 864.96875 244.644531 860.773438 C 244.957031 856.515625 242.371094 854.257812 238.277344 853.570312 Z M 205.175781 611.765625 C 198.167969 611.289062 191.464844 617.441406 191.246094 624.550781 C 191.035156 631.273438 196.824219 637.582031 203.625 638.046875 C 210.632812 638.519531 217.335938 632.371094 217.554688 625.261719 C 217.765625 618.539062 211.976562 612.226562 205.175781 611.765625 Z M 238.566406 508.601562 C 229.832031 508.351562 222.976562 514.65625 222.628906 523.265625 C 222.265625 532.355469 228.894531 539.355469 237.914062 539.414062 C 246.632812 539.46875 253.289062 533.003906 253.441406 524.332031 C 253.59375 515.617188 247.191406 508.847656 238.566406 508.601562 Z M 204.464844 543.808594 C 196.640625 543.777344 190.703125 549.570312 190.570312 557.367188 C 190.4375 565.199219 196.148438 571.238281 203.917969 571.46875 C 212.09375 571.714844 218.304688 565.652344 218.230469 557.5 C 218.160156 549.691406 212.277344 543.84375 204.464844 543.808594 Z M 205.878906 476.132812 C 198.246094 476.242188 192.066406 482.320312 191.839844 489.949219 C 191.601562 497.898438 197.910156 504.496094 205.863281 504.617188 C 213.835938 504.742188 220.320312 498.355469 220.324219 490.382812 C 220.328125 482.410156 213.851562 476.019531 205.878906 476.132812 Z M 271.917969 609.5 C 263.203125 609.378906 256.472656 615.804688 256.257812 624.445312 C 256.042969 633.175781 262.386719 640.003906 270.996094 640.3125 C 280.078125 640.640625 287.050781 633.972656 287.074219 624.949219 C 287.09375 616.238281 280.59375 609.617188 271.917969 609.5 Z M 305.519531 781.796875 C 299.53125 781.664062 294.15625 786.832031 294.023438 792.847656 C 293.890625 798.835938 299.058594 804.210938 305.078125 804.34375 C 311.066406 804.476562 316.4375 799.308594 316.570312 793.289062 C 316.703125 787.300781 311.539062 781.929688 305.519531 781.796875 Z M 305.460938 922.5625 C 302.570312 922.429688 300.671875 923.976562 300.304688 926.820312 C 299.894531 930.035156 301.433594 932.269531 304.726562 932.613281 C 307.953125 932.949219 309.90625 931.242188 310.398438 927.972656 C 310.316406 924.726562 308.800781 922.714844 305.460938 922.5625 Z M 305.589844 608.503906 C 315.203125 608.367188 322.46875 601.035156 322.527344 591.402344 C 322.59375 581.386719 315.035156 573.902344 305.007812 574.042969 C 295.390625 574.175781 288.128906 581.507812 288.066406 591.144531 C 288.003906 601.160156 295.558594 608.644531 305.589844 608.503906 Z M 304.753906 852.09375 C 300.035156 852.4375 297.03125 855.460938 297.0625 860.261719 C 297.097656 865.445312 300.246094 868.621094 305.429688 868.558594 C 310.65625 868.496094 313.222656 865.082031 313.777344 859.421875 C 312.59375 855.1875 310.074219 851.710938 304.753906 852.09375 Z M 271.53125 887.980469 C 267.710938 888.066406 265.375 890.679688 265.675781 894.507812 C 265.9375 897.875 268.335938 899.769531 271.742188 900.074219 C 275.234375 899.601562 277.5625 897.652344 277.664062 894.242188 C 277.777344 890.398438 275.355469 887.890625 271.53125 887.980469 Z M 271.957031 817.847656 C 266.367188 817.703125 262.972656 820.773438 262.816406 826.410156 C 262.65625 832 265.738281 835.382812 271.375 835.554688 C 276.992188 835.726562 280.039062 832.5625 280.636719 826.964844 C 280.347656 821.453125 277.621094 817.992188 271.957031 817.847656 Z M 271.898438 574.359375 C 280.859375 574.222656 288.398438 566.566406 288.382812 557.617188 C 288.371094 548.667969 280.804688 541.027344 271.851562 540.921875 C 262.902344 540.8125 255.175781 548.277344 254.945312 557.246094 C 254.710938 566.519531 262.613281 574.5 271.898438 574.359375 Z M 272.175781 678.523438 C 264.285156 678.269531 258.167969 684.035156 258.019531 691.871094 C 257.867188 699.75 263.722656 705.773438 271.574219 705.816406 C 279.453125 705.863281 285.371094 699.933594 285.3125 692.050781 C 285.253906 684.527344 279.65625 678.765625 272.175781 678.523438 Z M 271.613281 747.753906 C 265.335938 747.789062 259.953125 753.222656 259.984375 759.488281 C 260.015625 765.765625 265.453125 771.148438 271.71875 771.117188 C 277.992188 771.085938 283.378906 765.652344 283.347656 759.382812 C 283.316406 753.109375 277.882812 747.722656 271.613281 747.753906 Z M 271.613281 747.753906 " fill-opacity="1" fill-rule="nonzero"/></g><g clip-path="url(#971998a2e0)"><path fill="#000000" d="M 690.265625 538.769531 L 520.945312 487.570312 L 515.363281 513.292969 C 510.148438 537.4375 502.144531 555.636719 491.46875 567.402344 C 482.738281 576.988281 469.03125 581.722656 449.867188 581.84375 C 448.046875 569.832031 446.957031 554.90625 446.957031 536.101562 C 446.957031 492.179688 455.082031 470.824219 461.996094 460.632812 C 474.367188 442.070312 490.984375 433.335938 514.394531 433.335938 C 514.636719 433.335938 514.878906 433.335938 515.121094 433.335938 L 517.304688 440.371094 L 577.949219 501.035156 L 749.09375 462.941406 L 740.605469 437.460938 C 726.171875 394.023438 704.824219 359.445312 677.046875 333.96875 C 672.195312 329.476562 627.921875 279.488281 598.449219 258.621094 C 561.941406 232.777344 512.089844 219.675781 450.351562 219.675781 C 371.269531 219.675781 308.804688 242.363281 264.53125 287.011719 C 220.382812 331.660156 197.941406 395.359375 197.941406 476.285156 C 197.941406 536.707031 210.558594 587.421875 235.542969 627.097656 C 276.78125 692.617188 358.414062 758.984375 387.160156 772.207031 C 421.363281 787.859375 465.148438 795.867188 517.546875 795.867188 C 561.210938 795.867188 598.207031 789.195312 627.316406 776.210938 C 657.035156 762.867188 682.382812 742.847656 702.398438 716.761719 C 722.046875 691.160156 736.601562 659.128906 745.578125 621.636719 L 750.914062 599.433594 Z M 690.265625 538.769531 " fill-opacity="1" fill-rule="nonzero"/></g><path fill="#ffffff" d="M 539.015625 518.386719 L 661.277344 555.390625 C 653.03125 589.730469 640.175781 618.363281 622.464844 641.292969 C 604.757812 664.347656 582.925781 681.695312 556.726562 693.34375 C 530.527344 704.992188 497.292969 710.9375 456.78125 710.9375 C 407.777344 710.9375 367.628906 703.777344 336.578125 689.582031 C 305.527344 675.265625 278.601562 650.273438 256.042969 614.359375 C 233.480469 578.324219 222.203125 532.339844 222.203125 476.285156 C 222.203125 401.667969 242.09375 344.28125 281.757812 304.121094 C 321.539062 263.960938 377.699219 243.941406 450.351562 243.941406 C 507.238281 243.941406 551.875 255.46875 584.5 278.398438 C 617.007812 301.449219 641.265625 336.757812 657.035156 384.320312 L 533.921875 411.738281 C 529.554688 398.027344 525.066406 387.957031 520.335938 381.527344 C 512.574219 370.851562 502.992188 362.601562 491.710938 356.898438 C 480.433594 351.195312 467.816406 348.285156 453.871094 348.285156 C 422.210938 348.285156 398.074219 361.023438 381.214844 386.382812 C 368.480469 405.308594 362.171875 434.914062 362.171875 475.316406 C 362.171875 525.304688 369.8125 559.640625 384.976562 578.203125 C 400.136719 596.765625 421.484375 605.988281 449.019531 605.988281 C 475.703125 605.988281 495.835938 598.464844 509.542969 583.539062 C 523.003906 568.738281 532.832031 546.898438 539.015625 518.386719 Z M 539.015625 518.386719 " fill-opacity="1" fill-rule="nonzero"/></svg>